<svg width="150" height="56" viewBox="0 0 150 56" fill="none" xmlns="http://www.w3.org/2000/svg">
<path d="M115.82 2.87134C115.321 3.12657 114.831 3.39243 114.353 3.67956C112.556 4.75365 110.822 6.21058 109.663 7.98655C111.205 7.21023 112.822 6.61469 114.491 6.16804C114.693 4.97697 115.172 3.87098 115.82 2.87134Z" fill="#B9522F"/>
<path d="M142.428 22.2154C142.928 21.9708 143.407 21.705 143.885 21.4179C145.682 20.3331 147.416 18.8762 148.575 17.0896C147.022 17.8553 145.385 18.4295 143.736 18.9613C143.545 20.1417 143.077 21.2264 142.428 22.2154Z" fill="#B9522F"/>
<path d="M143.566 19.0252C140.588 19.9717 137.462 20.7799 134.357 20.8969C131.836 20.9926 133.857 17.228 132.751 15.9625C131.74 14.8033 129.539 15.1436 128.231 15.2075C126.221 15.3032 124.211 15.4839 122.201 15.3989C119.479 15.2925 117.671 14.6013 116.086 12.3893C115.044 10.943 114.385 9.22021 114.385 7.42298C114.385 6.9976 114.417 6.57222 114.491 6.15747C112.822 6.60412 111.205 7.19965 109.663 7.97598C108.781 9.32656 108.228 10.8473 108.228 12.5382C108.228 14.3354 108.887 16.0582 109.929 17.5045C111.514 19.7165 113.321 20.4077 116.044 20.5141C118.054 20.5992 120.064 20.4077 122.074 20.3227C123.382 20.2589 125.583 19.9079 126.593 21.0777C127.689 22.3432 125.679 26.1078 128.199 26.0121C131.294 25.8951 134.42 25.0869 137.409 24.1405C139.121 23.5981 140.812 23.0026 142.428 22.2156C143.077 21.2266 143.534 20.1419 143.736 18.9721C143.683 18.9827 143.63 19.004 143.566 19.0252Z" fill="#F1B257"/>
<path d="M121.095 5.15766C120.744 4.25373 120.553 3.29662 120.553 2.30761C120.553 1.88223 120.585 1.45685 120.659 1.05273C118.99 1.49938 117.373 2.09492 115.831 2.87124C115.172 3.87088 114.704 4.97688 114.502 6.17858C116.65 5.59368 118.883 5.27464 121.095 5.15766Z" fill="#A5284C"/>
<path d="M149.723 13.8994C147.703 14.5374 145.629 15.1223 143.534 15.4626C143.736 16.1645 143.853 16.8983 143.853 17.664C143.853 18.1106 143.811 18.5466 143.747 18.9614C145.395 18.4297 147.033 17.8554 148.586 17.0897C149.234 16.1007 149.692 15.016 149.894 13.8462C149.84 13.8675 149.777 13.8887 149.723 13.8994Z" fill="#A5284C"/>
<path d="M138.919 10.8472C137.909 9.68802 135.707 10.0283 134.399 10.0921C132.389 10.1878 130.379 10.3686 128.369 10.2836C125.647 10.1772 123.839 9.48597 122.255 7.27398C121.787 6.61464 121.393 5.90213 121.106 5.15771C118.894 5.27469 116.671 5.59373 114.513 6.16799C114.449 6.58274 114.406 6.99749 114.406 7.4335C114.406 9.23074 115.066 10.9535 116.108 12.3998C117.692 14.6118 119.5 15.3031 122.223 15.4094C124.233 15.4945 126.242 15.3031 128.252 15.218C129.56 15.1542 131.762 14.8032 132.772 15.973C133.867 17.2385 131.858 21.0032 134.378 20.9074C137.473 20.7905 140.599 19.9822 143.587 19.0358C143.641 19.0145 143.704 19.0039 143.758 18.9826C143.832 18.5572 143.864 18.1212 143.864 17.6852C143.864 16.9195 143.747 16.1857 143.545 15.4838C142.535 15.6434 141.535 15.7603 140.525 15.7922C138.004 15.8773 140.014 12.1127 138.919 10.8472Z" fill="#DD4F41"/>
<path d="M121.095 5.15775C121.723 5.12584 122.35 5.10457 122.978 5.10457C128.029 5.10457 133.325 6.12549 137.739 8.78412C140.27 10.3049 142.684 12.5913 143.534 15.4626C145.629 15.1223 147.703 14.548 149.724 13.8993C149.777 13.8781 149.841 13.8568 149.894 13.8462C149.968 13.4208 150 12.9848 150 12.5487C150 8.63524 147.033 5.57249 143.885 3.67955C139.472 1.02092 134.165 0 129.125 0C126.317 0 123.424 0.319035 120.649 1.05282C120.585 1.46756 120.542 1.88231 120.542 2.30769C120.542 3.2967 120.745 4.25381 121.095 5.15775Z" fill="#781F4F"/>
<path d="M137.738 8.78404C133.325 6.12541 128.018 5.10449 122.978 5.10449C122.35 5.10449 121.723 5.11513 121.095 5.15766C121.382 5.90208 121.776 6.61459 122.244 7.27394C123.828 9.48592 125.636 10.1772 128.359 10.2835C130.369 10.3686 132.378 10.1772 134.388 10.0921C135.696 10.0283 137.898 9.67734 138.908 10.8471C140.003 12.1126 137.993 15.8773 140.514 15.7816C141.524 15.739 142.524 15.6327 143.534 15.4732C142.683 12.5912 140.269 10.3154 137.738 8.78404Z" fill="#C8345D"/>
<path d="M0 23.2471H5.18965V33.8391C5.57249 33.4775 6.04041 33.1478 6.57214 32.8288C7.10386 32.5204 7.67813 32.2439 8.29493 31.9993C8.9011 31.7653 9.53917 31.5633 10.1985 31.4144C10.8579 31.2655 11.5066 31.1911 12.1659 31.1911C13.8674 31.1911 15.452 31.5101 16.9302 32.1482C18.4084 32.7862 19.6845 33.6583 20.7799 34.743C21.8646 35.8277 22.7366 37.1145 23.3747 38.5927C24.0128 40.0709 24.3318 41.6554 24.3318 43.357C24.3318 45.0585 24.0128 46.643 23.3747 48.1212C22.7366 49.5994 21.8646 50.8756 20.7799 51.9603C19.6951 53.045 18.4084 53.917 16.9302 54.5551C15.452 55.1932 13.8674 55.5122 12.1659 55.5122C10.4644 55.5122 8.87983 55.2038 7.40163 54.5764C5.92343 53.9489 4.63665 53.0982 3.53066 52.0028C2.42467 50.9181 1.56328 49.6313 0.935839 48.1531C0.308402 46.6749 0 45.0798 0 43.3463V23.2471ZM5.18965 43.357C5.18965 44.3141 5.37043 45.2074 5.75328 46.0581C6.12549 46.9089 6.62531 47.6427 7.25275 48.2701C7.88018 48.8976 8.61397 49.3974 9.46473 49.7696C10.3155 50.1418 11.2194 50.3332 12.1659 50.3332C13.123 50.3332 14.0163 50.1524 14.8671 49.7696C15.7178 49.3974 16.4516 48.8976 17.079 48.2701C17.7065 47.6427 18.2063 46.9089 18.5785 46.0581C18.9507 45.2074 19.1421 44.3034 19.1421 43.357C19.1421 42.3999 18.9507 41.5065 18.5785 40.6558C18.2063 39.805 17.7065 39.0712 17.079 38.4438C16.4516 37.8164 15.7178 37.3166 14.8671 36.9443C14.0163 36.5721 13.1124 36.3807 12.1659 36.3807C11.2088 36.3807 10.3155 36.5721 9.46473 36.9443C8.61397 37.3166 7.88018 37.8164 7.25275 38.4438C6.62531 39.0712 6.12549 39.805 5.75328 40.6558C5.37043 41.5065 5.18965 42.3999 5.18965 43.357Z" fill="white"/>
<path d="M27.8091 32.2227H32.9987V34.4559C34.0728 33.7115 35.2958 33.1372 36.6676 32.7331C38.0395 32.329 39.539 32.127 41.1873 32.127V37.3272C40.0494 37.3272 38.9966 37.5187 38.0182 37.8909C37.0399 38.2631 36.1678 38.7735 35.4234 39.4116C34.679 40.0497 34.0941 40.7941 33.6581 41.6449C33.2221 42.4956 33.0094 43.3996 33.0094 44.346V54.5871H27.8197V32.2227H27.8091Z" fill="white"/>
<path d="M43.8993 23.2471H49.174V32.5948C50.6629 31.6696 52.2899 31.2123 54.0446 31.2123C55.5654 31.2123 56.9479 31.4782 58.2027 32.0206C59.4576 32.5523 60.5317 33.2861 61.425 34.2113C62.3183 35.1365 63.0095 36.2106 63.4987 37.4548C63.9879 38.6884 64.2325 40.0071 64.2325 41.4108V54.5977H59.0003L58.9578 41.3683C58.9578 40.709 58.8302 40.0922 58.575 39.486C58.3197 38.8905 57.9688 38.3694 57.5221 37.9227C57.0755 37.4761 56.5544 37.1251 55.9589 36.8699C55.3633 36.6147 54.7253 36.4871 54.034 36.4871C53.4066 36.4871 52.8004 36.6253 52.2261 36.8912C51.6412 37.157 51.1308 37.5292 50.6841 37.9865C50.2375 38.4438 49.8759 38.9755 49.61 39.5711C49.3442 40.1666 49.2059 40.7834 49.2059 41.4002V54.587H43.8887V23.2471H43.8993Z" fill="white"/>
<path d="M67.2314 43.3571C67.2314 41.6555 67.5505 40.071 68.1886 38.5928C68.8266 37.1146 69.6987 35.8385 70.8046 34.7431C71.9106 33.6584 73.1974 32.7863 74.6756 32.1483C76.1538 31.5102 77.7384 31.1912 79.4399 31.1912C81.1414 31.1912 82.7259 31.5102 84.2041 32.1483C85.6823 32.7863 86.9585 33.6584 88.0538 34.7431C89.1386 35.8278 90.0106 37.1146 90.6487 38.5928C91.2867 40.071 91.6058 41.6555 91.6058 43.3571V54.5765H86.4161V53.3216C84.3637 54.7785 82.0347 55.5123 79.4399 55.5123C77.5895 55.5123 75.9199 55.2039 74.4098 54.5765C72.8996 53.9491 71.6235 53.0877 70.5707 51.9817C69.5072 50.8757 68.6884 49.5889 68.1141 48.1107C67.5292 46.6431 67.2314 45.0586 67.2314 43.3571ZM72.4211 43.3571C72.4211 44.3142 72.6125 45.2075 72.9847 46.0582C73.3569 46.909 73.8568 47.6428 74.4842 48.2702C75.1116 48.8977 75.856 49.3975 76.7068 49.7697C77.5576 50.1419 78.4615 50.3333 79.4186 50.3333C80.3757 50.3333 81.2797 50.1632 82.1304 49.8229C82.9812 49.4825 83.7256 48.9934 84.3743 48.3659C85.0124 47.7385 85.5228 47.0047 85.8738 46.1539C86.2353 45.3032 86.4161 44.378 86.4161 43.3571C86.4161 42.4 86.2247 41.5067 85.8525 40.6559C85.4803 39.8051 84.9805 39.0713 84.353 38.4439C83.7256 37.8165 82.9812 37.3167 82.1304 36.9444C81.2797 36.5722 80.3757 36.3808 79.4186 36.3808C78.4615 36.3808 77.5576 36.5722 76.7068 36.9444C75.856 37.3167 75.1116 37.8165 74.4842 38.4439C73.8568 39.0713 73.3569 39.8051 72.9847 40.6559C72.6019 41.5067 72.4211 42.4 72.4211 43.3571Z" fill="white"/>
<path d="M99.8689 32.2227H94.6792V54.5764H99.8689V32.2227Z" fill="white"/>
<path d="M123.318 41.3897C123.318 39.9859 123.052 38.6672 122.51 37.4336C121.978 36.2 121.234 35.1153 120.298 34.1901C119.362 33.2649 118.267 32.5311 117.033 31.9994C115.799 31.4677 114.491 31.1912 113.119 31.1912C111.748 31.1912 110.44 31.457 109.206 31.9994C107.972 32.5311 106.877 33.2649 105.941 34.1901C105.005 35.1153 104.261 36.1894 103.729 37.4336C103.197 38.6672 102.921 39.9859 102.921 41.3897L102.878 54.5765H108.153L108.196 41.3897C108.196 40.7303 108.323 40.1135 108.579 39.5074C108.834 38.9118 109.185 38.3907 109.631 37.9441C110.078 37.4974 110.599 37.1359 111.195 36.87C111.79 36.6041 112.428 36.4659 113.119 36.4659C113.811 36.4659 114.449 36.6041 115.044 36.87C115.64 37.1359 116.161 37.4974 116.608 37.9441C117.054 38.3907 117.405 38.9118 117.66 39.5074C117.916 40.1029 118.043 40.7303 118.043 41.3897L118.086 54.5765H123.361L123.318 41.3897Z" fill="white"/>
</svg>
