<?xml version="1.0" encoding="UTF-8"?>
<svg version="1.1" viewBox="0 0 2048 476" width="1035" height="241" xmlns="http://www.w3.org/2000/svg">
<path transform="translate(242,7)" d="m0 0h33l21 3 20 3 20 6 19 7 28 14 7 4 14 9 3 1 2 4 5 3 8 5 2 4 9 6 4 5v3l4 1v2h2l6 8 7 8 6 9 8 10 3 6 3 2 1 5 12 23 7 25 4 17 2 14 1 14v13l-2 21-4 22-7 24-6 15-9 17-3 4-3 7-8 12-9 11-9 10-4 5-8 7-6 7-8 6-14 10-15 10-15 8-26 10-15 5-24 6-31 5-9 1h-23l-26-3-23-4-24-7-12-5-23-9-14-8-11-7-5-3-20-15-5-5-7-8-6-5v-2h-2l-4-5-4-4-13-17-11-19-11-22-8-25-4-17-2-19v-39l2-19 4-20 8-23 14-28 7-10 8-11 7-9 2-3 3-1 3-5 5-3 1-3 5-5 6-5 2-1 1-3 8-6 7-4 5-5 9-5 5-3 8-5 7-3 10-5 8-3 4-3 19-7 6-2 7-1 4-2 26-4z" fill="#7FBFD2"/>
<path transform="translate(242,7)" d="m0 0h33l21 3 20 3 20 6 19 7 28 14 7 4 14 9 3 1 2 4 5 3 8 5 2 4 9 6 4 5v3l4 1v2h2l6 8 7 8 6 9 8 10 3 6 3 2 1 5 12 23 7 25 4 17 2 14 1 14v13l-2 21-4 22-7 24-6 15-9 17-3 4-3 7-8 12-9 11-9 10-4 5-8 7-6 7-8 6-14 10-15 10-15 8-26 10-15 5-24 6-31 5-9 1h-23l-26-3-23-4-24-7-12-5-23-9-14-8-11-7-5-3-20-15-5-5-7-8-6-5v-2h-2l-4-5-4-4-13-17-11-19-11-22-8-25-4-17-2-19v-39l2-19 4-20 8-23 14-28 7-10 8-11 7-9 2-3 3-1 3-5 5-3 1-3 5-5 6-5 2-1 1-3 8-6 7-4 5-5 9-5 5-3 8-5 7-3 10-5 8-3 4-3 19-7 6-2 7-1 4-2 26-4zm-9 35-3 1-14 1-12 3-7 3-16 2-8 3-4 3-16 6-9 6-9 4-8 7-10 7-3 2v2l-4 2-15 14-2 1v2h-2v2h-2l-7 8-7 10-3 6-5 7-3 7-5 6-6 17-4 9-1 10-3 6-2 20v28l2 21 6 22 5 15 4 10 6 9 8 13 7 10 2 4 8 7 6 7 8 7 10 9 8 6 9 6 10 6 8 6 19 8 7 3 35 10 11 2h68l10-2 13-3 16-5 14-5 5-3 13-5 7-5 2-3 12-5 13-11 8-7 10-8 16-16 3-6 5-7 4-3 2-9 4-2 4-10 6-12 7-22 3-13 1-10v-43l-2-14-8-26-4-11-11-20-6-8-4-8-9-10-4-6-6-4-12-12-8-7-6-3-5-5-8-6-10-4-5-4-15-6-12-6-7-2-13-1-5-3-10-1-2-2-16-1-2-1z" fill="#0788C4"/>
<path transform="translate(216,82)" d="m0 0h86l16 2h32l18 4 1 8-7 3-20 2-30 2-10 1-41 1h-39l-21-1-8-1-20-1-8-1h-17l-1 5 8 10 1 4v19l-1 5 4 2 6 2v2l8 1 9 4 24 1h43l30-2 33-1v-2l-15-1-4-4-5-13 1-14 3-2 30-3 17-3 16-2h13l1 1 1 14v15l3 3 2 1-1 6-2 4-1 12-4 7-4 3-27 5-19 2-20 2h-49l-32-1-14-1-4-1-18-1-12-3-22-1-1 4 7 11 1 5v12l-2 11v2h2v2l9 1 22 5 16 2v2h12l16 1h12l12-2 38-2-7-1-4-3-4-13 1-14 3-3 10-2 52-4 14-3 10-4h5l2 5 1 17 2 7 1 1-1 7-1 4-4 1-1 19-5 4-13 5-23 5-27 3-14 2-15 1h-16l-23-1-36-4-13-2-26-5-10-2v7l5 5 5 4 1 10 1 23 6 2 13 3v2l4 2-2 2-6 3-1 1v7l3 3-1 4h-7l-15-4h-6v6l4 4 8 5 2 2v14l-1 12 3 3 14 5 27 5 17 1h43l52-2 25-4h8l-5 4-12 7-5 2-20 4-15 1-1 1h-49l-36-3-22-5-9-3-10-4-11-4-8-4-10-10-1-3v-40l2-4 7-5 1-7-6-10-3-4v-42l9-10v-8l-3-5-7-6v-3h-2l-1-2-2-24v-8l3-7 7-8 2-4-2-9-7-8-4-4-1-6v-12l1-18 7-11 10-5 16-4 37-1z" fill="#055B99"/>
<path transform="translate(804,80)" d="m0 0h27l14 2 14 4 10 3 12 6 3 3 7 4 10 10 9 14 6 16 4 21v27l-4 19-6 15-13 19v3l27 15 7 8v7l-7 8-1 1-13 1-8-1v-2l-5-1-9-4-8-5-13-7-12 2-20 3h-34l-21-3-16-6-13-8-9-7-8-11-8-14-4-8-4-18-1-6v-28l4-21 2-6h2l1-6 7-13 14-15 5-3h3l1-4 8-3 8-4 17-4 7-2zm7 32-12 3-10 5-7 7-5 3-2 7-6 13-2 6-1 7v27l3 13 7 14 4 6 11 9 13 6 10 2 6 1v-2l11-1 2-1-1-3-25-12h-2l-2-8 5-6v-2h16l7 2 15 7 9 4 4-1 6-7 4-12 2-17v-16l-3-15-3-9-4-6-3-7-5-4-3-3-7-4-13-5-5-1z" fill="#04A4EA"/>
<path transform="translate(1224,86)" d="m0 0h83l17 1 12 4 8 3 3 4 7 3 6 7 7 6 10 16 5 15 3 18v29l-4 22-4 10-8 13-6 8-10 9-14 8-10 4-10 2-14 1h-81l-9-2-5-5-2-5-1-7v-148l3-9 5-5zm32 30v122h30l15-1 12-5 12-9 4-10 3-2 3-14 1-8v-24l-2-14-3-10-3-3-5-9-10-7-2-2-22-4z" fill="#05A4EA"/>
<path transform="translate(377,254)" d="m0 0h2v22l13 2 1 2v91l-3 2-28 1-18 9-15 6h-8v-1l9-2 8-4 10-6-14 1-18 3-51 2h-43l-17-1-31-6-12-5-2-3 1-12v-14l-5-4-8-5-1-2v-6l1-1 9 1 12 3h7l-1-4-2-2v-7l5-4 4-2-3-3 5 1 9 2 10 1 10 3h38v-2l-30-2v-5h3l2 3h62l1-30 26-1-11-2v-2l8-2 27-3 7-2 15-4 12-4z" fill="#0788C4"/>
<path transform="translate(594,80)" d="m0 0h26l13 2 20 6 11 6 2 3 5 3 8 10 4 9v9l-4 9-6 5-3 1h-19l-7-5-4-7-5-9v-2l-4-2-7-6-11-3h-16l-10 3-6 4-5 6-1 9 3 9 4 2 7 3v2l16 4 14 3 13 2 6 2 8 3 16 5 10 7 8 5 5 7 7 17 1 7v8l-1 6h-2l-1 6-6 15-14 14-5 2-6 4-13 4-20 3h-34l-24-4-9-4-10-6-13-12-5-9-4-8-1-4v-12l3-6 7-5h23l6 5 8 13 2 5 11 12 8 3v3h11l5 2 1-2 9-1 5-3 7-3 5-4h2l2-4 3-7v-8l-5-10-14-8-10-3-17-3-27-9-17-6-9-7-7-6-5-9-4-13v-12l6-17 7-9 5-3 4-4 12-6 17-4 7-2z" fill="#05A4EA"/>
<path transform="translate(1721,130)" d="m0 0h50l2 3 14 4 12 7 8 12 3 10 1 10 1 55 3 16 2 8-1 9-6 5-5 2h-17l-8-5-7-8-3-1-11 6-8 4-19 4h-29l-14-4-8-5-6-5-5-8-2-6v-19l3-8 6-7h2l1-4 10-5 11-4 26-6 21-3h4v-2l11-4h3l-2-16-4-2-4-5-8-2h-13l-10 2v2l-10 7-7 10-5 4-13 1-7-1-8-6-1-3v-8l3-9 6-7 7-6 16-7 9-3zm43 76-10 3-25 4-12 5-5 7 1 11 7 8 10 4 13-2 10-5 8-8v-2l3-1 2-9v-15z" fill="#05A4EA"/>
<path transform="translate(972,80)" d="m0 0h16l5 2 3 3 6 5 2 4 1 13v131h92l10 9 1 3v9l-4 7-11 3h-119l-9-2-7-6-2-10v-146l1-12 3-6 9-6z" fill="#05A4EA"/>
<path transform="translate(1903,129)" d="m0 0 23 1 4 2 9 3 12 5 8 5 7 9 2 10-3 9-6 3h-21l-6-4-9-9-5-4-3-3-7-1h-10l-8 2-1 3-4 4 1 9 15 7 16 5 9 3 13 2 3 2 9 3 5 4 8 4 3 3 1 3 5 4 2 5 1 10-2 12-2 6-4 6-9 9-12 6-23 4h-35l-20-4-8-3-6-5-5-3-6-8-3-6v-13l4-5 6-3h17l7 4 9 12 2 5 5 2 6 3 10 2 8-1 11-4 4-6 1-7-3-6-6-3-3-3-21-6-15-3-25-10-2-3-5-3-5-6-4-13v-9l4-11 6-8h3l1-4 16-8 8-2 1-3z" fill="#05A4EA"/>
<path transform="translate(1555,130)" d="m0 0h40l3 1 1 2 15 5 11 6 11 10v2l3 1 4 9v9l-5 7-3 2h-3v3l-5 1h-12l-3-2-6-7-7-7-2-4-12-7-11-3-11 3-10 6-8 11-3 11-1 19 3 15 6 9 10 9 4 2 6 1h10l6-2 4-1v-2l8-6 9-12 5-6 9-3h11l8 5 5 7 1 5-4 13-4 6-9 9-13 8-15 4-13 2h-31l-18-3-10-4-13-8-5-5-4-5-8-15-3-10-1-7v-22l2-14 7-14 3-4 2-5 5-2 3-5 9-6 12-6 10-3h2v-2z" fill="#05A4EA"/>
<path transform="translate(368,89)" d="m0 0 5 4v5l5 2 2 3 2 21-1 15-3 5-5-1-4-4v-15l-1-14h-13l-29 4-13 2-21 2-2 1-1 14 5 13 3 3 12 1 3 1v2l-2 1-51 2-10 1h-43l-24-1-9-4-8-2v-2l-6-1-4-3v-24l-3-7-6-7 1-5 1-1h17l8 1 20 1 8 1 21 1h39l41-1 20-2 30-2 13-2 4-1z" fill="#A8ADB1"/>
<path transform="translate(355,109)" d="m0 0h13l1 1 1 14v15l3 3 2 1-1 6-2 4-1 12-4 7-4 3-27 5-19 2-20 2h-49l-32-1-14-1-4-1-18-1 3-2-10-4-3-6 3-12 1-3-5-1 4-1 9 4 24 1h43l30-2 33-1v-2l-15-1-4-4-5-13 1-14 3-2 30-3 17-3z" fill="#055695"/>
<path transform="translate(371,245)" d="m0 0 5 2 1 5-1 2h-2l-1 3-19 6-14 3-1 1-35 4v2l11 1 2 2h-28v30l-1 1h-62l-2-4h-3v5h14l14 1 2 1v2l-3 1h-35l-10-3-16-2-13-4-8-2-6-3-1-3-1-24-2-7-7-5-2-3 1-7h7l17 4 16 3 45 5 23 1h16l24-2 14-2 18-2 23-5 10-2 7-3z" fill="#B0B9C2"/>
<path transform="translate(356,285)" d="m0 0h24l5 2v73l-3 2-5 1h-76l-3-3-1-34v-39l1-1z" fill="#80C0D3"/>
<path transform="translate(1430,130)" d="m0 0h23l1 3 4 2 5 6 2 4v111l-4 9-2 3-8 3h-18l-8-4-5-7-1-4v-111l7-10z" fill="#04A4EA"/>
<path transform="translate(148,323)" d="m0 0 9 1 15 4 12 1 3 3 5 1h12l9 2h22l21 3 32-1 1 1v36l17 2 5 2-1 2-45 2h-43l-17-1-31-6-12-5-2-3 1-12v-14l-5-4-8-5-1-2v-6z" fill="#D8DEE2"/>
<path transform="translate(233,42)" d="m0 0h45l2 1 16 1 2 2 10 1 5 3 13 1 12 4 16 8 7 3 8 5 8 3 7 6 5 5 8 4 8 9 8 7 3 3 5 3 8 11 6 7 4 8 7 10 10 19 6 20 5 18 1 9v43l-2 14-4 15-7 21-7 14-3 5h-2l-2 9-5 4-4 6-5 8-14 14-13 11-15 13-16 8-5 5-12 6-8 3-9 4-20 6-5 2-20 4h-68l-18-4-20-6-14-4-8-4-14-6-10-8-13-7-8-7-11-9-24-24-7-11-4-5-6-11-6-8-6-18-8-28-2-21v-28l2-20 3-6 1-10 9-22 3-7 4-4 4-9 5-7 3-6 6-8 6-7h2v-2h2v-2l8-7 11-10h2l1-3 9-6 10-8 4-3 9-4 6-4 18-7 6-4 8-2 12-1 11-4 8-2 14-1zm38 2-36 1-33 5v2l-5-1-9 1-15 7-18 8-6 5-11 4-8 8-10 6-4 3v2l-4 2-12 11-10 10-9 11-6 11-5 5-4 9-7 12-6 17-1 2-1 10-3 5-2 14v41l3 16 8 25 4 13 1 3 4 4 6 10 8 13 3 5h2l2 5 7 8 12 12 11 9 9 6 5 5 15 8 7 6 13 5 10 5 32 9 17 3h62l14-4 12-2 17-5 12-5 7-3 10-4 1-3 4-2 8-5 6-3 10-8 1-3-2-1h-26l-8 3-20 9-24 5-15 1-4 1h-42l-6-1-24-1-31-6-10-4-8-2-12-5-8-3-8-7-6-7-1-8 1-34 3-5 7-8-1-6-8-11v-39l1 39 7 10 2 4-1 7-7 5-2 4v40l3 5 8 8 8 4 11 4 10 4 9 3 22 5 36 3h49l1-1 15-1 9-2 12-1 22-9 6-4 5-2 28-1 3-2v-91l-1-2-3-1h-8v-2l12 1 2 2 1 6 1 24v47l2 12 5 1 5-4 6-7 5-3 2-4 3-1 6-10 7-9 6-11 8-16 8-26 4-24v-34l-2-19-6-23-5-12-4-9-8-14-4-5-6-10-8-10-5-5-8-7-7-6-5-6-12-8-7-6-4-4-13-5-7-4-16-8-8-3-3-2-25-4-6-2-15-1z" fill="#45B0D8"/>
<path transform="translate(216,82)" d="m0 0h86l16 2h32l18 4 1 8-7 3-20 2-30 2-10 1-41 1h-39l-21-1-8-1-20-1-8-1h-17l-1 5 8 10 1 4v19l-1 5 4 2 6 2v1l-14-1-10-3-7-6-1-2v1l11 14 1 3v10l-6 5-4 6v13l1 25h-2l-1-2-2-24v-8l3-7 7-8 2-4-2-9-7-8-4-4-1-6v-12l1-18 7-11 10-5 16-4 37-1z" fill="#72777A"/>
<path transform="translate(158,178)" d="m0 0h8l7 2 8 1 20 1 5 1 33 1v2h-2v3l3 3 2 3 1 9-2 27-5 2h-23l-29-3-18-4-1-35-5-5-6-4v-3z" fill="#D8DEE2"/>
<path transform="translate(365,183)" d="m0 0h5l2 5 1 17 2 7 1 1-1 7-1 2-6 1-8 1-16 3-19 2v2h-35v-1l-7-1-4-3-4-13 1-14 3-3 10-2 52-4 14-3z" fill="#727779"/>
<path transform="translate(372,173)" d="m0 0 5 1 1 6-2 2-13 1-19 6-22 3-5 1-28 2-12 2-1 16 4 13 3 2 9 1-2 2-38 2-12 2h-12l-28-2v-1h36l4-1 2-29-1-7-2-5-3-1 1-3h2v-2h-33l-5-1-20-1-11-2-4-1h-12l2 4 7 4 3 4v34l-9-1-4-1v-2h-2l-1-4 2-9v-12l-3-9-5-7 2-5 22 1 12 3 18 1 4 1 14 1 32 1h63l13-2 18-1 22-5z" fill="#B6BEC5"/>
<path transform="translate(159,254)" d="m0 0 24 3 11 2 19 2 15 2 13 5 3 6-2 21v7l3 3-4 2h-15l-2-4h-3l-1 3-2 1h-14l-17-2-16-4-2-2v-26l-2-9-8-5-3-2v-2z" fill="#D8DEE2"/>
<path transform="translate(363,222)" d="m0 0h11v2l-4 1-1 19-5 4-13 5-23 5-27 3-14 2-15 1h-16l-2-1-29-2-6-1v-1l31-2 17-2 5-2-1-7-7-2-13-2-4-3v-2l9-1 3-3 14-2h52v-2l25-4 10-2z" fill="#0E3D71"/>
<path transform="translate(176,107)" d="m0 0h14l27 2 9 2 1 1 11 2 5 4-2 19 1 8-3 9-2 1h-35l-22-3-1-3-6-1-3-5 2-13-1-10-1-9 3-3z" fill="#D8DEE2"/>
<path transform="translate(302,301)" d="m0 0h16l2 3 3 9 3 1 2-4 3-8 1-1h18l3 4 3 10h2l3-12 5-2h11l1 1v10l-3 16-5 17-2 8-2 2h-12l-4-4-2-6-4-7-2-11-3 1-5 16-3 9-3 2h-10l-5-4-3-9-4-19-4-17z" fill="#D8DEE2"/>
<path transform="translate(355,109)" d="m0 0h13l1 1 1 14v15l3 3 2 1-1 3-5 1-4-1-12 5-8 1h-10l-6 1h-17v-2l-15-1-4-4-5-13 1-14 3-2 30-3 17-3z" fill="#727779"/>
<path transform="translate(141,316)" d="m0 0 2 3v2l5 1v8l4 4 8 5 2 2v14l-1 12 3 3 14 5 27 5 17 1h43l52-2 25-4h8l-5 4-12 7-5 2-20 4-15 1-1 1h-49l-36-3-22-5-9-3-10-4-11-4-8-4-10-10-1-3v-37l3-1z" fill="#72787B"/>
<path transform="translate(148,323)" d="m0 0 9 1 15 4 12 1 3 3 5 1h12l9 2h22l21 3 32-1 1 1v36l17 2 5 2-1 2-45 2h-43l-17-1-31-6-12-5-2-3 1-12v-14l-5-4-8-5-1-2v-6zm6 4 1 4 11 7 2 4 1 26 3 3 12 4 22 3 21 1h12l5-2 1-1v-16l1-3v-11l-2-5-5-2-33-2-5-1-15-1-11-4-6-1-1-2z" fill="#98A1A9"/>
<path transform="translate(427,124)" d="m0 0 5 4 7 12 8 13 6 12 3 9 3 8 5 20 2 17v32l-2 17-7 25-4 12-8 16-4 7-3 6-4 4-6 9-8 10-6 4-6 7-10 7-13 12-9 6-7 3-3 1-1 3-10 6-13 5-15 6-17 5-9 1-10 3-4 1h-58l-19-3-25-7-15-5-9-4-14-7-7-6-13-7-5-6 5 2 4 4 15 8 7 6 13 5 10 5 32 9 17 3h62l14-4 12-2 17-5 12-5 7-3 10-4 5-5 8-5 6-3 9-7v-3h-26l-8 3-20 9-24 5-15 1-4 1h-42l-6-1-24-1-31-6-10-4-8-2-12-5-8-3-8-7-7-8-1-8 1-34 3-5 7-8-1-6-8-11v-39l2-3 1 42 7 10 2 4-1 7-6 5h-2l-1 4v40l3 5 7 7 8 4 11 4 10 4 9 3 22 5 36 3h49l1-1 15-1 9-2 12-1 22-9 6-4 5-2 28-1 2-1v-93l-11-1-1-3 13 1 3 3 1 6 1 24v47l2 12 6-1 9-10 5-3 5-6 6-9 6-8 6-11 8-16 8-26 4-24v-34l-2-19-6-23-5-12-4-9-8-14-4-5-6-10z" fill="#61B5D3"/>
<path transform="translate(180,229)" d="m0 0 20 2v2h12l16 1h12l12-2h13v1l-7 2-2 2h-9l4 4 19 3 3 5-1 5-5 2-30 3-12 1 29 2v1h-21l-36-4-13-2-12-2 3-2-2-5v-10l4-7z" fill="#0788C3"/>
<path transform="translate(169,151)" d="m0 0 7 1 6 3 24 1h52l-2 1 1 7h10l8 4 1 4-2 3-11 3-13 2-6 2v1h-28l-14-1-4-1-18-1 3-2-10-4-3-6 3-12 1-3-5-1z" fill="#0688C4"/>
<path transform="translate(221,303)" d="m0 0h3l2 3 31 1-3 2 10 3v1l-21 1v2l9 1 16 5 3 4-1 3-5 2-11 2-2 1v2l26 1v1l-22 1-21-3h-22l-9-2h-12l-6-2-2-2-12-1 4-2-1-4-2-2v-7l5-4 4-2-3-3 5 1 9 2 10 1 10 3h38v-2l-30-2z" fill="#0688C4"/>
<path transform="translate(1302,293)" d="m0 0h37v2l5 2 5 7v9l-5 6v3l6 5 3 1v9l-7 8-5 1v3l-8 1h-30l-3-5v-48zm12 10v15h16l5-4v-8l-2-2zm0 22v15h14l7-2 3-4-1-6-2-2-4-1z" fill="#7190BA"/>
<path transform="translate(1733,293)" d="m0 0h32l8 5 5 3 5 8 2 8v9l-4 11-5 6-5 3-4 2v1l-10 1h-21l-3-1v-3h-2v-50zm12 10-1 34 1 3h12l7-3 4-4 2-7v-10l-3-9-4-3-7-1z" fill="#7190BA"/>
<path transform="translate(1412,382)" d="m0 0h29l9 1 10 10 3 12v10l-4 11-8 7-6 3-7 1h-25l-5-4v-50zm12 7-1 1v38h15l8-7 2-5v-13l-3-9-8-4z" fill="#7190BA"/>
<path transform="translate(358,259)" d="m0 0h5l-2 2-21 5-1 1-35 4v2l11 1 2 2h-28v30l-1 1h-47v-1l17-1-3-2-3-3-1-2 1-16 3-10 4-4h23l32-2 30-4z" fill="#959FA9"/>
<path transform="translate(638,310)" d="m0 0h8l1 1h5l1-1h16l3 2 6-1 2-1h15l6 5 2 12v11l-3 11h-8l-3-2-1-3-1-24-2-4-5 1-3 4-1 22-3 6h-9l-1-3-2-26-2-4h-6l-2 3-1 6-1 21-2 3h-9l-2-3v-34z" fill="#7190BA"/>
<path transform="translate(883,396)" d="m0 0h9l9 3 2-3 9 1 1 1v41l-3 6-6 5-3 1h-23l-5-1v-3l-4-2-1-5 6-2 6 1 4 4h11l4-4 1-5-10 3h-7l-8-3-5-4-3-7v-13l3-6 7-6zm4 8-6 5-1 4v8l3 6 4 3h6l4-2 3-6v-11l-5-6-2-1z" fill="#7291BA"/>
<path transform="translate(233,42)" d="m0 0h45l2 1 16 1 2 2 10 1 5 3 13 1 12 4 16 8 7 3 8 5 8 3 7 6 5 5 8 4 8 9 8 7 3 3 5 3 8 11 6 7 4 8 7 10 10 19 6 20 5 18 1 9v43l-2 14-4 15-7 21-7 14-3 5h-2l-2 9-5 4-4 6-5 8-14 14-13 11-15 13-16 8-5 5-12 6-8 3-9 4-20 6-5 2-10 2-13 2 1-2 13-4 12-2 19-6 12-5 13-5 8-5 5-5 9-4 9-7 12-11 10-7 6-7 4-1 2-4 5-6 4-6 5-7 3-3 3-7 12-24 7-24 2-8 2-17v-32l-3-21-5-20-3-7-2-6-10-19-7-11-6-9-8-7-2-4-8-6-13-13-11-8-9-7-5-5-13-5-7-4-16-8-8-3-3-2-25-4-6-2-15-1-9-2-36 1-20 3-12 2-4 1-2-2 11-4 8-2 14-1z" fill="#45B0D8"/>
<path transform="translate(761,382)" d="m0 0h46v7l-18 1h-15v14h28l3 5-2 3-3 1h-26v15h18l15 1 1 3-1 4-9 1h-35l-4-5v-45z" fill="#7391BA"/>
<path transform="translate(539,293)" d="m0 0h10l8 13 8 18 8 17-1 5-2 3-7 1-2-1-6-12-1-1-22-1-1 6h-2l-2 7-3 2-7-1-3-5 2-6 8-17 6-13 6-12zm5 15-7 14-1 5h14l-1-7-4-12z" fill="#7190BA"/>
<path transform="translate(1557,382)" d="m0 0 13 1v51l-2 2h-10l-3-2-9 3-11-1-6-4-4-5-2-5v-11l4-8 6-5 6-2h9l8 3v-16zm-14 22-5 4-1 2v13l3 5 3 2h6l5-4 2-9-2-9-5-4z" fill="#7190BA"/>
<path transform="translate(1308,382)" d="m0 0h7l5 1v49l-2 4h-9l-4-2-10 3-10-1-8-6-5-10v-8l5-9 6-5 5-2h10l9 3v-16zm-15 22-5 4-2 6 1 9 4 6 2 1h6l5-4 2-5v-9l-4-6-3-2z" fill="#7291BA"/>
<path transform="translate(1881,293)" d="m0 0h9l2 7v44l-2 5h-9l-1-4-7 2-1 2h-15v-3l-5-1-5-6-2-5v-12l4-7 4-3 8-3 12 1 6 2v-16zm-16 22-6 7-1 3v8l3 5 4 4 7-1 5-5 1-3v-8l-3-6-5-4z" fill="#7190BA"/>
<path transform="translate(342,375)" d="m0 0h8l-5 4-12 7-5 2-20 4-15 1-1 1h-49l-36-3-14-3-1-4-7-1-4-2-9-2v-2l9 1 13 1v2l48 3h31l37-3 11-3z" fill="#435866"/>
<path transform="translate(615,293)" d="m0 0h9l1 3v49l-1 4h-9l-2-3-6 1-1 2h-15v-2l-5-2-6-7-1-3v-13l3-7 10-6h8l8 2 3 1 1-4 1-13zm-17 22-5 6-1 3v11l5 6 6 1 6-4 3-7-1-7-4-7-3-2z" fill="#7290BA"/>
<path transform="translate(1200,293)" d="m0 0h10l1 3v50l-1 3h-10l-1-3-7 1v2h-15l-5-5-5-4-2-6v-12l3-7 9-5 9-1 9 2 4 1v-17zm-14 22-6 5-2 5v9l6 7 5 1 6-3 3-7v-7l-3-6-5-4z" fill="#7190BA"/>
<path transform="translate(1631,293)" d="m0 0h9l1 1v52l-1 3h-9l-1-4-8 2v2h-15l-3-3-5-4-4-9v-10l4-8 4-3 4-2h16l5 2 1-16zm-15 22-6 5-2 6v7l3 6 6 3 6-2 4-4 1-2v-10l-4-6-4-3z" fill="#718FBA"/>
<path transform="translate(365,145)" d="m0 0 7 1 3-1-2 5-1 3-1 12-4 7-4 3-27 5h-15l5-10-2-4-14-2-10-2-1-5 9-2h17l5 3 9-1 1-2h-14v-1l13-1 16-4z" fill="#0E3A6E"/>
<path transform="translate(1030,382)" d="m0 0h12l1 15 1 2 9-3h7l8 3 4 6v29l-1 2-8 1-4-3-1-25-5-5-5 2-4 5-1 21-2 4-4 1-7-2-1-5v-47z" fill="#7391BA"/>
<path transform="translate(273,231)" d="m0 0h44v1l-19 1 4 5 11 3 7 5v5l-8 4-6 2-22 1-5 1-22 1h-26v-1l36-4 5-2-1-7-7-2-13-2-4-3v-2l9-1 3-3z" fill="#055797"/>
<path transform="translate(1434,84)" d="m0 0h17l8 3 5 6 1 3v9l-3 6-6 5-6 2h-17l-8-4-5-6-1-3v-7l3-7 6-5z" fill="#06A4EA"/>
<path transform="translate(359,107)" d="m0 0h10l2 2 2 30 6 3-1 2-5-1-4-4v-15l-1-14h-13l-29 4-13 2-21 2-2 1-1 14 5 13 3 3 12 1 3 1v2l-2 1-31 1h-18v-1l15-1-4-3-8-5-5-9 1-6 3-5 5-4h2v-2l6-3 46-4 16-3z" fill="#8E9599"/>
<path transform="translate(289,194)" d="m0 0h9l-3 1 2 6 4 8 1 1 11 2 7 4 1 3 4 1v2l5 2 7 3v1l-12 1v2h-35v-1l-7-1-4-3-4-13 1-14 3-3z" fill="#788490"/>
<path transform="translate(1486,396)" d="m0 0h16l5 2 4 5v2h3l2 25-1 6h-9l-5-4-7 4h-16l-7-6-1-2v-6l2-4 16-5 11-3-1-4-1-1h-8l-6 4-1 1h-9l-1-5 8-7zm3 22-5 3-1 5 4 4h7l5-4 2-5v-3z" fill="#7291BA"/>
<path transform="translate(1051,309)" d="m0 0h14l9 3 5 4 1 21 2 5-1 4-2 3h-8l-3-5-5 2-3 3h-17l-7-7-1-7 3-6 9-3 13-2 5-3-2-4-2-1h-6l-6 4-5 3-5-1-2-2 1-5 9-5zm12 20-12 3-3 3 2 5 3 2 7-1 6-7-1-3h2v-2z" fill="#7291BA"/>
<path transform="translate(1097,396)" d="m0 0h15l7 3 6 8 1 20 1 6-4 4-6-1-5-4-7 4-11 1-9-3-3-4-1-8 2-4 7-3 18-4 2-1-1-4-1-1h-9l-7 5h-8l-1-5 5-6zm2 22-5 4v5l3 3h7l5-3 3-6-1-3z" fill="#7391BA"/>
<path transform="translate(1213,396)" d="m0 0h14l7 3 6 7 1 19 1 9-4 3-6-1-5-4-6 4-11 1-8-2-6-7v-7l4-4 19-5 8-2-4-5h-8l-5 3-3 2h-7l-2-2 1-4 7-6zm2 22-5 3-1 5 4 4h7l5-4 2-6v-2z" fill="#7291BA"/>
<path transform="translate(1806,309)" d="m0 0h18l10 5 2 3 1 22 1 6-2 4h-8l-4-5-7 3-1 2h-15l-3-3-5-4-1-7 3-6 9-3 13-2 5-2-1-4-3-2h-6l-6 4-4 3-7-1-1-1v-5zm14 20-11 3-4 3 1 4 5 3 5-1 6-4 1-2v-6z" fill="#7190BA"/>
<path transform="translate(1375,309)" d="m0 0h14l9 3 5 5 1 20 1 9-2 3h-7l-3-4-10 2v2l-12 1-3-1-8-8-1-4 2-7 5-3 20-3 3-2-1-5-1-1h-7l-7 4-4 3-7-1-1-5 6-5zm13 20-12 3-4 4 2 4 4 2 6-1 4-2 2-3v-7z" fill="#7290BA"/>
<path transform="translate(950,309)" d="m0 0h8l8 2 6 4 2 25 1 5-3 4h-7l-2-5-9 3v2h-16l-9-8v-7l5-6 16-3 9-3-1-4-2-2h-7l-6 4-2 2-6 1-4-3 1-4 5-4 5-2zm8 20-13 3-2 2v5l5 3 6-1 5-5 1-7z" fill="#7290BA"/>
<path transform="translate(999,309)" d="m0 0h11l9 3 6 4 2 5-4 4h-6l-7-8-6-1-6 5-2 10 3 6 6 4 5-1 10-8 6 2 1 5-5 5-8 5-4 2 6 3 1 4-4 5-6 1h-12l-2-1v-3l12-1 1-4-9-1v-3h2v-2l-5-2-8-6-4-8v-7l3-8 7-6z" fill="#7391BA"/>
<path transform="translate(981,396)" d="m0 0 7 1 5 1 5-2h11l5 3 5 6v28l-2 3h-9l-2-2-1-24-1-5h-8l-4 4-1 23-2 4h-10l-2-2v-35z" fill="#7291BA"/>
<path transform="translate(820,396)" d="m0 0 5 1 8 2v-2l4-1h12l5 3 1 4 3 1v29l-2 3-5 1-5-2-1-2-1-25-1-3h-8l-3 3-1 2-1 22-1 3-3 1h-8l-2-3v-34z" fill="#7391BA"/>
<path transform="translate(360,110)" d="m0 0h7l1 2 1 30 3 3v2l-7-1-12 5-8 1-4-1v-2l9-3-1-7-2-1v-2l-8-1-3-2v-2l-4-2-4-5v-6l3-3 24-4z" fill="#646A6B"/>
<path transform="translate(1596,396)" d="m0 0h11l8 3 7 7 2 4v14l-4 6-3 3-13 4-11-1-8-4-6-7-2-10 2-7 4-5 9-6zm2 8-5 4-2 5v8l3 6 5 3 7-1 4-4 1-4v-9l-3-5-3-3z" fill="#7190BA"/>
<path transform="translate(1346,396)" d="m0 0h11l8 3 7 8 1 2v8l-2 1h-29l5 10 1 1h7l6-3 4-3h6l1 5-6 6-5 2-13 1-10-3-6-5-4-8v-9l4-7 8-7zm2 8-5 4-1 4 1 1h18l-2-5-4-4z" fill="#7291BA"/>
<path transform="translate(1536,309)" d="m0 0h9l10 3 6 4 3 5 1 11-3 8-8 6-3 1-1 2-11 1-8-1-4-4-7-6-2-4v-12l3-6 5-4zm3 6-5 3-3 6v10l5 6 6 2 6-3 3-5v-11l-3-5-5-3z" fill="#7291BA"/>
<path transform="translate(940,396)" d="m0 0h12l6 3 8 8 2 4-1 6-3 1h-28l3 10 10 1 6-3 4-3h6l1 5-5 5-6 3-10 1-11-2-7-4-4-7v-15l3-5 8-6zm2 8-6 5v4h19l-2-5-5-4z" fill="#7291BA"/>
<path transform="translate(1919,309)" d="m0 0h8l10 3 8 7 2 5v11l-9 10-4 2-1 2h-19v-2l-5-2-5-4-4-8v-8l3-7 5-5 6-3zm1 6-5 5-2 5v8l4 6 4 3 6-1 5-4 1-3v-11l-4-6-4-2z" fill="#7290BA"/>
<path transform="translate(1416,310)" d="m0 0h8l1 1h6l2-1h15l9 5v31l-4 3h-7l-3-6-1-23-3-4-7 1-3 5-1 6-1 19-2 2h-8l-2-3-1-32z" fill="#7291BA"/>
<path transform="translate(1106,309)" d="m0 0 13 1 10 4 4 6 1 13-3 7-5 5-5 2-1 2h-17l-9-6-5-6-2-6 1-8 3-6 8-6zm2 6-6 7-1 3v9l4 6 4 2 7-1 4-5 1-10-3-8-4-3z" fill="#7191BA"/>
<path transform="translate(1236,309)" d="m0 0h14l12 6 3 5v8l-2 2h-29l2 9 10 2 6-3 3-2h9l1 3-5 5-5 3-1 2-14 1-6-1-3-3-8-6-2-5v-13l3-6 9-5zm5 6-5 3-2 4v3l3 1 15-1-1-6-5-4z" fill="#7291BA"/>
<path transform="translate(158,103)" d="m0 0 30 1 17 2 37 2 11 9 1 4-3 12 1 9 2 12-9 2h-26v-1l20-1 2-11-1-7 1-12 1-6-4-3-11-2-4-2-20-2-13-1h-14l-5 1v7l2 8v8l-2 12 2 3 6 2v1l-9-1-5-3v-27l-2-9-5-2-2-4z" fill="#C3CAD1"/>
<path transform="translate(148,250)" d="m0 0h7l17 4 16 3 45 5 23 1h30v1l-5 1h-37l-27-2-11-2-19-2-25-4h-6l3 3 8 5 2 3 1 7v26l7 2 16 4 11 1h14l3-1v3h14l14 1 2 1v2l-3 1h-35l-10-3-16-2-13-4-8-2-6-3-1-3-1-24-2-7-7-5-2-3z" fill="#B4BDC4"/>
<path transform="translate(739,310)" d="m0 0h7l5 2 5-2h15l7 5v31l-1 3h-9l-2-3-1-6-1-20-2-4h-6l-4 4-1 3-1 22-3 4h-8l-2-3-1-33z" fill="#7190BA"/>
<path transform="translate(1667,309)" d="m0 0h12l8 3 6 5 3 9-3 4h-29l4 8v2h11l6-4h9l-1 5-7 6-4 2-12 1-5-1v-2l-6-2-5-4-3-6v-12l3-6 6-5zm4 6-5 4-2 6 1 1 18-1-3-7-4-3z" fill="#7291BA"/>
<path transform="translate(1964,309)" d="m0 0h13l9 3 6 4 1 4-4 3-7-1-8-6-6 1-2 3v2l18 4 8 3 3 4-1 7-5 5-6 4-13 1-7-1-3-3-6-4-2-4 4-4 3-1 10 7 5 1 7-3v-3l-11-3-14-5-3-4v-6l6-5z" fill="#7291BA"/>
<path transform="translate(1644,396)" d="m0 0h12l9 3 4 5v5l-4 2-6-2-6-4h-6l-3 3 5 3 17 5 6 3 1 5-3 6-4 4-9 3h-10l-10-3-5-4-1-4 4-5 5 1 5 6 3 1h7l3-3-2-4-16-4-5-2-3-4v-7l5-6z" fill="#7291BA"/>
<path transform="translate(186,235)" d="m0 0 10 1 14 3 25 2 9 3 2 2v7l-3 3-13 1h-16l-27-4-6-2-1-8 2-5h2v-2z" fill="#03AFEC"/>
<path transform="translate(366,186)" d="m0 0h2l1 4 1 21 1 5 3 1-1 5-5 1-8 1-6 1-2-5v-3l-10-5-6-2-3-5-2-13 18-2 15-3z" fill="#646A6B"/>
<path transform="translate(824,309)" d="m0 0h10l9 2 8 5v5l-5 2-6-1-7-6-7 1-1 4 7 3 17 4 4 4v7l-4 5-6 3-1 2-11 1-9-1v-2l-5-2-5-4-1-4 5-4 6 3 5 4h9l2-1-1-4-8-3-14-5-3-3v-7l4-4z" fill="#7291BA"/>
<path transform="translate(255,194)" d="m0 0h34v1l-12 2-1 16 4 13 3 2 9 1-2 2-44 2 4-2 4-1-2-3-1-16 1-11z" fill="#96A0A9"/>
<path transform="translate(181,160)" d="m0 0 13 1 12 1 36 1 3 3v8l-2 3-4 1h-46l-12-4-2-3v-8z" fill="#03AFEC"/>
<path transform="translate(216,82)" d="m0 0h86l16 2h32l18 4v3l-13-3-39-1-17-1h-83l-18 1-37 1-18 5-6 5-2 6h-2v34l11 14 1 3v10l-6 5-4 6v13l1 25h-2l-1-2-2-24v-8l3-7 7-8 2-4-2-9-7-8-4-4-1-6v-12l1-18 7-11 10-5 16-4 37-1z" fill="#6E8DBA"/>
<path transform="translate(1484,309)" d="m0 0 13 1 9 4 3 4-1 5-2 2h-6l-8-9-7 1-4 5-1 10 3 7 5 2 5-1 5-5 4-3 5 1 2 2v5l-6 6-6 3h-18v-2l-5-2-6-5-2-4v-14l4-6 5-4z" fill="#7291BA"/>
<path transform="translate(146,175)" d="m0 0 22 1 12 3 18 1 4 1 14 1 76 2v1l-23 2-8 3h-7l-4-2-1-2-3-1-40-1-5-1-20-1-11-2-4-1h-12l2 4 7 4 3 4v34l-9-1-4-1v-2h-2l-1-4 2-9v-12l-3-9-5-7z" fill="#97A0A9"/>
<path transform="translate(330,52)" d="m0 0 8 1 12 7 13 5 9 5 6 3 5 4 6 5v2l5 1 10 8 4 5 8 7 6 4 7 10 6 7 6 10 7 10 9 18 7 20 5 15 1 11v48l-2 12-3 13-9 26-9 17-3 2-3 9-4 2-4 6-3 7-6 5-3 5-6 4-5 5-13 12-13 10-9 5-3-1 1-2 12-6 10-9 8-7 9-7 4-5 8-7 5-6 3-5 5-7 3-2 3-9 3-2 4-10 6-12 7-22 3-13 1-10v-43l-2-14-8-26-4-11-11-20-6-8-4-8-9-10-4-6-5-3-12-12-8-7-6-3-2-4-5-2-6-5-10-4-5-4-15-6-12-6z" fill="#1E99C7"/>
<path transform="translate(356,285)" d="m0 0h24l5 2v73l-3 2-5 1h-76l-3-3-1-34v-39l1-1zm-57 2-1 3 1 17 1 11 1 38 1 3 2 1h70l5-2 1-1 1-7 1-51-1-10-2-1-24-1z" fill="#63ADCE"/>
<path transform="translate(137,285)" d="m0 0 4 5 5 4 16 5 6 3 11 2v2l4 2-2 2-6 3-1 1v7l3 3-1 4h-7l-21-5-5-2-2-4-4 4-1-3 2-4 7-5 1-7-6-10-3-4z" fill="#055998"/>
<path transform="translate(257,307)" d="m0 0h31v28l-9 2h-27v-4l6-2 10-2 2-1-2-5-20-6-5-1v-2l16-2-6-3z" fill="#056A9E"/>
<path transform="translate(866,293)" d="m0 0h8l3 4v12l9 2 1 3-3 1h-7l1 25 10 1 1 4-2 4h-18l-5-8v-26l-7-1 1-4 6-1v-12z" fill="#7291BA"/>
<path transform="translate(143,244)" d="m0 0h3l1 3-1 2h2v8l5 5 5 4 1 10 1 22-7-1-8-3-6-5-2-4v-35l4-5z" fill="#63696B"/>
<path transform="translate(163,89)" d="m0 0h13l12 2-2 6-2 2h-38l-3 3 1 7 2 5 1 26 3 4v2l4 2-11-2-9-7-1-2v-19l1-16 6-4 5-4 13-3z" fill="#646A6B"/>
<path transform="translate(136,214)" d="m0 0 8 6 26 6 9 2 1 2-5 5-1 3v10l2 5-1 1h-7l-20-4-2-1v-5l-6 3-3 3 1-5 8-9v-8l-3-5-7-6z" fill="#055A99"/>
<path transform="translate(136,246)" d="m0 0h1l1 42 7 10 2 4-1 7-6 5h-2l-1 4v40l3 5 7 7 8 4 11 4 10 4 9 3 22 5 36 3h49l1-1 15-1 9-2 12-1 22-9 6-4 2 1-8 6-18 8-24 5-15 1-4 1h-42l-6-1-24-1-31-6-10-4-8-2-12-5-8-3-8-7-7-8-1-8 1-34 3-5 7-8-1-6-8-11v-39z" fill="#668DBA"/>
<path transform="translate(185,312)" d="m0 0 10 1 7 2 25 2 13 2 5 4 1 4-4 4-4 1h-10l-5-1-23-2-15-3-4-5v-6z" fill="#03AFEC"/>
<path transform="translate(233,42)" d="m0 0h45l2 1 16 1 2 2 10 1 5 3 13 1 12 4 16 8 7 3 8 5 8 3 7 6 5 5 8 4 8 9 8 7 3 3 5 3 8 11 6 7 1 5-4-4-4-5-7-6-2-4-8-6-13-13-11-8-9-7-5-5-13-5-7-4-16-8-8-3-3-2-25-4-6-2-15-1-9-2-36 1-20 3-12 2-4 1-2-2 11-4 8-2 14-1z" fill="#50B2D5"/>
<path transform="translate(288,342)" d="m0 0h1v32l17 2 5 2-1 2-45 2h-22v-1l21-2 8-2 1-4-2-5-5-1-3-3 1-7 4-2v-2l6-3 5-1h7l1-5z" fill="#909699"/>
<path transform="translate(377,254)" d="m0 0h2v13l-2 9-1 1h-12l-7-3-10 1h-9l-12-2h-22v-2l8-2 27-3 7-2 15-4 12-4z" fill="#666C6D"/>
<path transform="translate(45,268)" d="m0 0 2 3 5 19 5 15 4 10 6 9 8 13 7 10 1 4 4 2 22 22 13 10 8 6 11 6 7 6 28 12 35 10 11 2h68l10-2 13-3 16-5 14-5 5-3 13-5 6-4 2-3h2l-2 5-8 5-15 6-8 4-22 7-7 3-21 3h-54l-21-2-15-4-19-6-10-3-8-4-16-7-12-9-9-5-7-6-9-7-5-5-11-10-4-4v-2h-2v-2l-4-2-9-14-4-5-6-10-5-7-3-10-3-6-7-27z" fill="#1E99C7"/>
<path transform="translate(1140,396)" d="m0 0 11 2 6-2 9 2 1 2v6l-1 1h-13l-3 11-1 16-2 2h-9l-2-1-1-3v-31z" fill="#7291BA"/>
<path transform="translate(335,151)" d="m0 0h10l-2 2-4 1v4l-9 1-5-3h-40l-12 1 7 6 10 5 1 3-3 6-12 3-20 2 41 1v1h-49l-10-2v-1l16-3 14-2 6-2 1-6-5-2-13-2-1-7 3-2 70-3z" fill="#066DA1"/>
<path transform="translate(352,99)" d="m0 0h10l-4 2-14 2-21 1-16 2-46 1h-24l-31-1-17-2-21-1h-17l1 4 8 5 3 8v25l2 3-6-1-4-3v-24l-3-7-6-7 1-5 1-1h17l8 1 20 1 8 1 21 1h39l41-1 20-2z" fill="#92999E"/>
<path transform="translate(154,327)" d="m0 0 15 1v2l10 2v1l-6 1 1 5 2 5 1 16v8l7 3 23 5h30l1-1v-13l2-5v-9l-1-7-4-2 7 1 3 2 1 4v11l-1 9v10l-2 2-4 1h-12l-21-1-22-3-12-4-3-3-1-26-3-5-10-6z" fill="#C3CAD1"/>
<path transform="translate(139,173)" d="m0 0 6 1 1 2-1 4 7 11 1 5v12l-2 11v2l2 1-10-1-7-7-1-2-1-28 1-7z" fill="#717678"/>
<path transform="translate(895,310)" d="m0 0h8l5 1 1-1h12l5 4-2 4-2 2-6-1-4-1-3 4-2 7-1 16-2 4h-9l-2-3v-34z" fill="#7091BB"/>
<path transform="translate(990,81)" d="m0 0 3 1 3 3 6 5 2 4 1 13v131l-2-1-2-11-1-55 1-38v-12l-1-8-1-20-3-5-4-3v-2h-2z" fill="#1FB3E7"/>
<path transform="translate(230,264)" d="m0 0h14l23 1 4 1h35l-4 2-27 1h-18l-3 9-2 14v6l1 4 7 2-2 2h-14l-3-4 1-16 1-12-2-5-11-4z" fill="#B6BEC5"/>
<path transform="translate(276,116)" d="m0 0h10l-4 2-3 4-2 7 1 7 5 12v2l7 2-3 2-8 1h-18v-1l15-1-4-3-8-5-5-9 1-6 3-5 5-4h2v-2z" fill="#97A0A9"/>
<path transform="translate(169,328)" d="m0 0 15 1 3 3 5 1h12l9 2h22l7 1 6 2v2l4 3 1 4-2 10v20l-2 2-5 1h-38l-14-3v-1h8l6 1 21 1h12l5-2v-16l1-3v-11l-1-4-5-2-33-2-5-1-15-1-11-4-6-2z" fill="#B4BCC3"/>
<path transform="translate(273,231)" d="m0 0h44v1h-33v2l-8 3-4 1v2h2v2h5l9 4 1 4-5 5-11 2-18 2h-18v-1l30-3 5-2-1-7-7-2-13-2-4-3v-2l9-1 3-3z" fill="#066BA0"/>
<path transform="translate(1179,396)" d="m0 0 7 1 2 4v28l-2 7h-10l-2-3v-34l1-2z" fill="#7392BA"/>
<path transform="translate(792,309)" d="m0 0h6l5 4v31l-3 5h-9l-2-5v-31z" fill="#7593BA"/>
<path transform="translate(148,323)" d="m0 0 9 1 12 3-1 2-14-2 2 4 10 6 3 5 1 26 5 3 9 3 8 1v2l9 1 5 1 37 2v1h-21l-17-1-31-6-12-5-2-3 1-12v-14l-5-4-8-5-1-2v-6z" fill="#909699"/>
<path transform="translate(370,98)" d="m0 0 7 1 3 4 2 21-1 15-2 2h-5l-2-2-2-30-1-3-22 1-2-2 5-2z" fill="#B0B6BB"/>
<path transform="translate(301,116)" d="m0 0h11v1l-14 2-2 1v10l4 8 1 1 12 2 12 5 3 3-1 3-3 1h-12v-2l-15-1-4-4-5-13 1-14 3-2z" fill="#7A848E"/>
<path transform="translate(716,309)" d="m0 0 7 1 3 2v34l-4 3h-7l-2-3v-34z" fill="#708FBA"/>
<path transform="translate(289,194)" d="m0 0h9v1l-9 1v14l2 13 4 2v2h14l3 3h-20l-9-1-4-3-4-13 1-14 3-3z" fill="#909699"/>
<path transform="translate(179,51)" d="m0 0h6l-4 2-8 3-4 3-16 6-9 6-9 4-8 7-10 7-8 7-13 12-3 1v2h-2v2h-2l-2 4-7 8-4 6-3 6-5 7-3 7-5 6-6 17-4 9-1 10-3 6-2 20v28l1 11v10h-1l-2-13v-41l2-16 2-6 2-11 9-22 3-7 4-5 5-10 3-4 4-7 6-8 19-19 11-9 6-5 14-11 22-12 15-6 6-4z" fill="#1E99C7"/>
<path transform="translate(378,267)" d="m0 0h1v10l-5 3h-79l1 17-1 6-2-4-3-2v-19l2-1 23-2-7-1 3-2h15l12 2h9l10-1 7 3h12z" fill="#066B9F"/>
<path transform="translate(248,340)" d="m0 0h27l7 1-1 3h3v2l-11 1-12 3-3 9v10l1 9-9 3h-25v-1l19-1 6-2v-20l2-11-2-4z" fill="#AAAEB1"/>
<path transform="translate(122,382)" d="m0 0 5 2 4 4 15 8 7 6 13 5 10 5 32 9 17 3h62l14-4 12-2 17-5 12-5 7-3 10-4 5-5 4-3h2l-2 4h-2l-1 3-10 6-13 5-15 6-17 5-9 1-10 3-4 1h-58l-19-3-25-7-15-5-9-4-14-7-7-6-13-7z" fill="#61B5D3"/>
<path transform="translate(310,268)" d="m0 0h12v1l-18 2v2l11 1 2 2h-28v30h-1l-1-7-5 1-5-5-1-13 2-7 5-4z" fill="#909699"/>
<path transform="translate(325,104)" d="m0 0h7l4 2v2l-17 4-20 2h-36l-3-2 1-4 5-1 46-1z" fill="#B6BEC5"/>
<path transform="translate(366,186)" d="m0 0h2l1 4 1 21 1 5 3 1-1 5-5 1-8 1-6 1 4-3v-8l-2-17-1-6 3-1v-2z" fill="#435866"/>
<path transform="translate(255,194)" d="m0 0h34v1l-23 2-1 4-3 10v9l3 6 5 5h-15l-3-4-1-16 1-11z" fill="#AAAEB1"/>
<path transform="translate(259,268)" d="m0 0h39v1l-22 2-9 3-4 4-2 5v14l2 5 13 2-1 2h-17v-2l-5-2-2-4 1-16 3-10z" fill="#AAAEB1"/>
<path transform="translate(216,85)" d="m0 0h83l17 1 39 1 11 3 3 2v4h-2l-1-3-13-4h-33l-9-1h-148v2l-7 3-13 3-7 6-1-2 6-7 13-4 7-2 37-1z" fill="#7A848E"/>
<path transform="translate(145,249)" d="m0 0h3v8l5 5 5 4 1 10 1 22-7-1v-2h-2l-3-6-2-29-2-3v-7z" fill="#72777A"/>
<path transform="translate(362,111)" d="m0 0 4 1 1 30 5 3v2l-7-1-12 5-8 1-4-2 12-3 3-3 1-10-1-5-3-11 1-4z" fill="#435866"/>
<path transform="translate(1451,130)" d="m0 0 3 1v2l4 2 5 6 2 4v111l-3 8h-2l2-14-1-105-4-8-5-4z" fill="#25B4E5"/>
<path transform="translate(146,175)" d="m0 0 22 1v1h-20l2 5 7 6 5 5v15l-2 16-7-1v-2h-2l-1-4 2-9v-12l-3-9-5-7z" fill="#788593"/>
<path transform="translate(378,179)" d="m0 0h2l1 12v21l-5 10h-2l1-9-2-2-1-6-1-17-1-4-8 1-10 4-11 2-19 1v-1l22-3 19-6 13-1z" fill="#99A1A8"/>
<path transform="translate(136,246)" d="m0 0h1l1 42 7 10 2 4-1 7-6 5h-2l-1 4v40l3 5 7 7 8 4 11 4 11 5v1h-6l-11-5-10-3-10-9-6-7-1-8 1-34 3-5 7-8-1-6-8-11v-39z" fill="#6F8EBA"/>
<path transform="translate(375,256)" d="m0 0h3v15l-2 6h-12l-9-4-1-8 9-4z" fill="#435866"/>
<path transform="translate(169,151)" d="m0 0 7 1 6 3 10 2 4 3 7 1v1h-9l-13-1-1 2v8l1 2 12 4 37 1v1l-27 1 4 2-27-2 3-2-10-4-3-6 3-12 1-3-5-1z" fill="#0688C4"/>
<path transform="translate(158,178)" d="m0 0h8l7 2-2 3 1 9v23l-1 10 2 2-7-1-1-35-5-5-6-4v-3z" fill="#B5BDC4"/>
<path transform="translate(427,124)" d="m0 0 5 4 7 12 8 13 6 12 3 9 3 8 5 20 2 17v32l-2 17-7 25-4 12-4 7h-2l2-6 3-6 7-23 4-24v-34l-2-19-6-23-5-12-4-9-8-14-4-5-6-10z" fill="#61B5D3"/>
<path transform="translate(139,173)" d="m0 0 6 1-1 2h-2l1 8v29l2 5 3 3h-5l-7-7-1-2-1-28 1-7z" fill="#475A66"/>
<path transform="translate(160,298)" d="m0 0 11 2 22 5 11 1h14l3-1v3h14l14 1 2 1v2l-3 1h-35l-10-3-16-2-13-4-8-2-6-3z" fill="#83BFD1"/>
<path transform="translate(205,107)" d="m0 0h21l16 1 11 9 1 4-3 12 1 9 2 12-2 1h-6v-28l1-8-5-5-14-4-6-1-17-1z" fill="#B6BEC5"/>
<path transform="translate(151,102)" d="m0 0h12v1l-7 1 8 8 2 7v27l7 3 7 2 22 3 41 2v1h-37l-24-1-9-4-8-2-3-5v-25l-3-8-8-5-1-4z" fill="#AAAEB1"/>
<path transform="translate(887,100)" d="m0 0 6 4 8 8 9 14 6 16 4 21v27l-4 19h-1v-57l-8-24-1-5h-2l-4-7-6-7-5-4z" fill="#15B2E9"/>
<path transform="translate(330,52)" d="m0 0 8 1 12 7 13 5 9 5 6 3 5 4 6 5v2l5 1 10 8 4 5 8 7 6 4 7 10 6 7 6 10 7 10 9 18-1 3-5-8-7-14-8-11-4-8-9-10-4-6-5-3-12-12-8-7-6-3-2-4-5-2-6-5-10-4-5-4-15-6-12-6z" fill="#1E99C7"/>
<path transform="translate(183,53)" d="m0 0 4 1-25 11-8 4-5 4-11 4-8 8-10 6-4 2v2l-11 9-14 14-9 11-6 11-5 5-4 9-7 12-6 17-2 2 2-9 8-20 4-5 4-8 6-8 5-9 9-11 8-7 9-9 8-7h2v-2l11-7 10-9 11-4 5-4 23-10z" fill="#61B5D3"/>
<path transform="translate(1255,116)" d="m0 0h1v122l-2-3-1-41v-69l1-8z" fill="#35B6E2"/>
<path transform="translate(374,145)" d="m0 0 1 2-3 6-1 12-4 7-4 3-20 4-4-1 11-3 8-1-1-6v-8l3-5 9-6z" fill="#05609C"/>
<path transform="translate(337,58)" d="m0 0 5 1 17 8 6 4 11 4 5 5 7 6 6 1 9 8 13 13 5 3 8 11 6 7 1 5-4-4-4-5-7-6-2-4-8-6-13-13-11-8-9-7-5-5-13-5-7-4-16-8z" fill="#4CB1D6"/>
<path transform="translate(137,102)" d="m0 0 3 1 2 9 1 17v12l11 6-3 1-10-3-6-5-1-7 1-27z" fill="#435866"/>
<path transform="translate(381,276)" d="m0 0h10l3 2 1 5v89l-3 3-5 1h-28l3-3 28-1 2-1v-93l-11-1z" fill="#45B0D8"/>
<path transform="translate(223,109)" d="m0 0 9 1 12 4 4 5-1 8-1 28-1 1h-26v-1l20-1 2-11-1-7 1-12 1-6-4-3-11-2-4-2z" fill="#C3CAD1"/>
<path transform="translate(369,397)" d="m0 0h2l-2 5-8 5-15 6-8 4-22 7-7 3-21 3h-54v-2l56-1 10-2 13-3 16-5 14-5 5-3 13-5 6-4z" fill="#1E99C7"/>
<path transform="translate(298,286)" d="m0 0h20v1l-19 1v35l2 38h68l10-1 2-1 1-3 1-27 2 4v27l-3 2-5 1h-76l-3-3-1-34v-39z" fill="#45B0D7"/>
<path transform="translate(45,214)" d="m0 0h1l1 41 3 16 8 25 4 13v3l4 2 7 12 8 13 2 5h2l6 9 15 15 11 9 5 5-5-2-14-12-16-16-14-21-8-13-5-6-3-9-6-20-4-14-2-13z" fill="#61B5D3"/>
<path transform="translate(235,339)" d="m0 0 7 1 3 2 1 4v11l-1 9v10l-2 2-4 1h-12l-21-1-10-2v-2l11 2h30l1-1v-13l2-5v-9l-1-7z" fill="#C4CBD2"/>
<path transform="translate(148,250)" d="m0 0h7l8 2v1h-13l2 5 11 7 2 4v30l-5-1-1-2-1-24-2-7-7-5-2-3z" fill="#909699"/>
<path transform="translate(179,305)" d="m0 0 5 1 4 2-1 4-5 3v6l3 4 11 2 4 4-2 3-11-1-3-3-12-1 4-2-1-4-2-2v-7l5-4 4-2z" fill="#0688C4"/>
<path transform="translate(141,316)" d="m0 0 2 3v2l4 1-2 2v7l2 15v11l-2 4-5-3-1-2v-38z" fill="#435866"/>
<path transform="translate(239,184)" d="m0 0h7v2l-2 1v2l3 2 1 4v10l-1 12v14l-7 1 2-30-1-7-2-5-3-1 1-3h2z" fill="#C3CAD1"/>
<path transform="translate(162,177)" d="m0 0h10l8 2 18 1 4 1 14 1 76 2v1l-23 2-8 3h-7l-4-2-1-2-3-1-40-1-5-1-20-1-11-2-8-2z" fill="#7BBED3"/>
<path transform="translate(185,51)" d="m0 0h12v1l-14 2-22 10-10 5-6 4-7 2-11 10-8 5h-2v2l-11 9-14 14h-3v-2h2v-2h2v-2l8-7 11-10h2l1-3 9-6 10-8 4-3 9-4 6-4 18-7 6-4z" fill="#44B0D8"/>
<path transform="translate(185,312)" d="m0 0 10 1 7 2 25 2 13 2 5 4 1 4-4 4-4 1h-10l-5-1v-1h10l7-2v-5l-6-2-13-2-17-1-15-3h-2v6l-1 2 6 2v1h-7l-4-5v-6z" fill="#03A4EB"/>
<path transform="translate(89,115)" d="m0 0v3l-7 8-5 9-7 9-5 10-3 4-9 24-1 13-3 5-2 14h-2v5h-1l1-20 3-6 1-10 9-22 3-7 4-4 4-9 5-7 3-6 9-10z" fill="#45B0D8"/>
<path transform="translate(298,290)" d="m0 0h1l1 17 1 11 1 38v3l70 1-3 2h-57l-11-1-1-2-2-36z" fill="#61B5D3"/>
<path transform="translate(368,89)" d="m0 0 5 4v5l-23 6-4 1 4 1h19v1l-38 4-9 2h-5l2-2 14-3h3l-1-2-3-1h-7l-13 2h-7l2-2 16-2 21-1 18-2v-2l7-2z" fill="#AAAEB1"/>
<path transform="translate(370,98)" d="m0 0 7 1 3 4 1 12-1 21h-3l-1-1-1-21v-7l-13-3v-2l3-3z" fill="#C4CBD2"/>
<path transform="translate(1065,292)" d="m0 0h5l1 1v6l-2 4h-12l-8-2-2 3h-5l-1-3 2-6 2-2h10l2 2 7 2z" fill="#7492BA"/>
<path transform="translate(322,258)" d="m0 0h8l-1 3-6 2-17 3-11 1h-24l-4-2 14-1 6-2 23-3z" fill="#B5C3CE"/>
<path transform="translate(768,152)" d="m0 0 1 2-2 9v27l3 13 7 14 4 6 10 8 4 2v2l-5-2-6-3v-2l-8-4v-2h-2l-6-13-4-20-1-2v-22l3-11z" fill="#14B2E9"/>
<path transform="translate(359,107)" d="m0 0h10l2 2 2 30 6 3-1 2-5-1-4-4v-15l-1-14h-13l-29 4-13 2-18 1-8-1v-1l35-3 16-3z" fill="#939A9F"/>
<path transform="translate(169,328)" d="m0 0 15 1 3 3 5 1h12l9 2h22l7 1 6 2v1h-27l-15-1-5-1-15-1-11-4-6-2z" fill="#72BBD3"/>
<path transform="translate(230,264)" d="m0 0h14l3 3 1 4v13l-1 14 1 4 4 3-8 1-3-4 1-16 1-12-2-5-11-4z" fill="#C3CAD1"/>
<path transform="translate(327,386)" d="m0 0 3 1-13 3-9 2-15 1-1 1h-49l-36-3-14-3v-1h10l15 3 25 1h48l14-1z" fill="#6E7579"/>
<path transform="translate(145,224)" d="m0 0h2l1 6h2l5 5 2 3 1 13-10-1-2-1v-5l-6 3-3 3 1-5 8-9v-8z" fill="#056DA3"/>
<path transform="translate(310,379)" d="m0 0h6l-2 2-13 2-28 2h-31l-12-2v-1l56-2z" fill="#6E7477"/>
<path transform="translate(146,98)" d="m0 0m-2 1h2v9l5 6 2 12-1 16 1 3 4 2-3 1-4-2-4-6-1-26-3-8 1-6z" fill="#717678"/>
<path transform="translate(371,222)" d="m0 0h3v2l-4 1-1 19-5 4-7 2v-11l3-7 1-3z" fill="#0F64A0"/>
<path transform="translate(378,267)" d="m0 0h1v10l-5 3-49-1-11-1v-1l26-2 13-2 7 1 4 2h12z" fill="#056A9F"/>
<path transform="translate(158,103)" d="m0 0 30 1 17 2v1h-12l-7-1-18 1-1 4 2 10v25l1 2-4-1-1-1v-27l-2-9-5-2-2-4z" fill="#B6BEC5"/>
<path transform="translate(236,40)" d="m0 0h39l13 2 19 3 3 1 3 4-4-1-1-1-10-1-2-2-16-1-2-1h-45l-3 1-14 1-12 3-7 3h-12v-1l13-2 6-3 16-3 12-1z" fill="#1E99C7"/>
<path transform="translate(148,100)" d="m0 0h17v1l-15 1-1 3 4 4 6 5 2 8v15l-1 7 1 3-6-3v-24l-3-7-6-7 1-5z" fill="#909699"/>
<path transform="translate(352,99)" d="m0 0h10l-4 2-14 2-21 1-16 2h-46l1-2 40-1 20-2z" fill="#939A9F"/>
<path transform="translate(288,342)" d="m0 0h1v32l17 2 5 2-1 2-35 1v-1l13-2-4-9v-12l2-10z" fill="#788595"/>
<path transform="translate(138,320)" d="m0 0h1l1 36 4 4 2-3v-12l-2-14v-7l2-1v7l4 8 1 18v10l2 4-4-2-10-9-1-1z" fill="#646A6B"/>
<path transform="translate(365,183)" d="m0 0h5l2 5 1 17 2 7 1 1-1 7-2 2v-5l-3-3-1-3-1-25-4 2-20 4h-15v-1l18-2 13-4z" fill="#6E7478"/>
<path transform="translate(197,328)" d="m0 0 26 2 5 1h13v5h-28l-9-2h-6l-1-2 2-2z" fill="#1895C6"/>
<path transform="translate(346,369)" d="m0 0 8 1 1 4-4 4-7 3-3-1 7-4-14 1-18 3-1-2 11-5h9v-2z" fill="#05689E"/>
<path transform="translate(372,173)" d="m0 0 5 1 1 6-2 2h-17l-1 1h-15l1-3 12-3z" fill="#BEC6CD"/>
<path transform="translate(159,254)" d="m0 0 11 1-1 4 3 5 1 16v19l2 2-5-1-1-5v-22l-2-9-8-5-3-2v-2z" fill="#C3CAD1"/>
<path transform="translate(676,176)" d="m0 0 4 2 5 7 7 17 1 7v8l-1 6h-2l-1 6h-2v-24l-4-11 1-3-4-9-4-4z" fill="#25B4E5"/>
<path transform="translate(257,307)" d="m0 0h31v7l-24-1-10-3-1-2z" fill="#066CA0"/>
<path transform="translate(152,326)" d="m0 0 4 1h-2l2 4 10 6 3 5 1 26 5 3 6 2-4 1-10-3-3-5v-25l-2-4-10-6-1-4z" fill="#A6ABAF"/>
<path transform="translate(310,268)" d="m0 0h12v1l-18 2v2l11 1 2 2h-28v30h-1l-1-33 5-3z" fill="#7189A5"/>
<path transform="translate(147,178)" d="m0 0 4 5 11 9v16l-2 16-4-1-2-1 2-9 1-16-1-5-5-5-4-5z" fill="#8F9598"/>
<path transform="translate(165,253)" d="m0 0 15 2 8 2 45 5 23 1h30v1l-5 1h-37l-27-2-11-2-19-2-21-4z" fill="#81B2C8"/>
<path transform="translate(251,313)" d="m0 0h36l1 4-1 2h-11l-25-3-2-2z" fill="#055897"/>
<path transform="translate(358,259)" d="m0 0h5l-2 2-21 5-1 1-29 2-18 2h-8l2-2 28-3 30-4z" fill="#9AA2A8"/>
<path transform="translate(163,179)" d="m0 0h7l3 2-2 2 1 9v23l-1 10 2 2-5-1v-31l-2-10-4-3z" fill="#C2CAD1"/>
<path transform="translate(189,156)" d="m0 0h17l22 1-2 2v3h-23l-9-2z" fill="#0683BE"/>
<path transform="translate(141,255)" d="m0 0 3 2 1 9v24l-4-2-2-3v-23z" fill="#435866"/>
<path transform="translate(431,345)" d="m0 0 1 4-5 5-6 8-6 4-5 5-13 12-13 10-9 5-3-1 1-2 12-6 10-9 8-7 9-7 4-5 8-7 5-6z" fill="#1D98C6"/>
<path transform="translate(133,104)" d="m0 0h1v33l5 5 5 8 3 3 3 5 1 7-10 6-6 7-1-2 6-8 4-3v-10l-4-7-8-10v-29z" fill="#0685C0"/>
<path transform="translate(154,327)" d="m0 0 15 1v2l2 1h-9l1 3 5 2 3 5 1 5 1 22 5 4-6-1-3-3-1-26-3-5-10-6z" fill="#B5BEC5"/>
<path transform="translate(188,308)" d="m0 0 15 1 10 3 26 1v1l-18 1-2 1h-17l-15-4-1-3z" fill="#0688C4"/>
<path transform="translate(150,261)" d="m0 0 7 4 2 7 1 26-4-1-2-5v-11l-2-15z" fill="#7A848E"/>
<path transform="translate(160,298)" d="m0 0 11 2 13 3 1 3 20 2 12 3 28 1v-2l-3-1h7l2 1v2l-3 1h-35l-10-3-16-2-13-4-8-2-6-3z" fill="#5BAACE"/>
<path transform="translate(146,100)" d="m0 0 2 1-1 5 8 10 1 4v19l-1 5 4 2 6 2v1l-8-1-5-5-1-5 1-13-2-11-5-6v-7z" fill="#79848F"/>
<path transform="translate(1358,107)" d="m0 0 6 4 7 9 6 10 5 15-1 2-3-3-1-6h-2l-4-6v-3h-2l-5-13v-2h-3l-1-3-2-1z" fill="#13B2E9"/>
<path transform="translate(887,100)" d="m0 0 6 4 8 8 9 14 6 16 2 13-4-5-5-17-3-7v-3h-2l-4-7-6-7-5-4z" fill="#1CB3E7"/>
<path transform="translate(182,254)" d="m0 0h10l19 3 20 1v1l-6 1 29 2v1h-21l-36-4-13-2z" fill="#0673AB"/>
<path transform="translate(275,108)" d="m0 0h26l4 1v2l-10 2h-20l-4-2v-2z" fill="#C4CBD2"/>
<path transform="translate(142,176)" d="m0 0 2 1v5l3 9v26l1 3-4-2-2-5v-29l-1-5z" fill="#646A6B"/>
<path transform="translate(243,337)" d="m0 0 21 1 14-1h10l1 5-2 2-5-1v-2l-3 1-8-1h-18l-8-1z" fill="#8498B0"/>
<path transform="translate(147,153)" d="m0 0 10 6 2 2v6l-5 4-4 1-2-2-5 1-4 2 4-5 7-3-1-7z" fill="#066B9F"/>
<path transform="translate(355,109)" d="m0 0h13l1 1 1 14v15l3 3 2 1-1 3-3-1v-2l-3-1-1-32-23 4h-8l-5-1v-1z" fill="#737A7F"/>
<path transform="translate(371,245)" d="m0 0 5 2-1 6-4 2-14 2h-2l1-4 8-4z" fill="#D9DFE3"/>
<path transform="translate(328,52)" d="m0 0 10 3 16 8 7 3 8 5 8 3 7 6 5 5 1 2-5-2-8-7-3-3-13-5-4-3-22-10-7-3z" fill="#45B0D8"/>
<path transform="translate(152,335)" d="m0 0 6 2 4 4v14l-1 12 5 5-6-1-3-3v-11l1-11-2-7z" fill="#7A848E"/>
<path transform="translate(150,101)" d="m0 0h16v1l-15 1 1 4 8 5 3 8v25l2 3h-4l-2-4 1-7v-15l-2-8-5-4-5-5z" fill="#97A0A8"/>
<path transform="translate(715,293)" d="m0 0h9l2 1v8l-1 1h-10l-3-3 1-4z" fill="#7291BA"/>
<path transform="translate(791,293)" d="m0 0h10l2 4-1 5-1 1h-10l-2-3 1-5z" fill="#7190BA"/>
<path transform="translate(179,151)" d="m0 0 23 3 41 2v1h-37l-24-1-3-2z" fill="#6DB8D2"/>
<path transform="translate(372,106)" d="m0 0 3 1 1 7 1 21 2 1 1-17 2 1-1 19-2 2-4-1-1-1z" fill="#B6BEC5"/>
<path transform="translate(1382,150)" d="m0 0h1l2 13v29l-3 18h-1v-10l1-5v-34l-1-8z" fill="#19B2E8"/>
<path transform="translate(371,161)" d="m0 0h1v7l-4 6-7 3-19 4-18 1-13 2h-14v-1l26-3 20-2 20-4 5-5z" fill="#8A9AAE"/>
<path transform="translate(228,157)" d="m0 0 18 1-2 4-4 1h-34v-1l20-1-1-3z" fill="#209AC8"/>
<path transform="translate(53,176)" d="m0 0 1 3-1 3-1 13-3 5-2 14h-2v5h-1l1-20 3-6 1-10 3-6z" fill="#4EB1D6"/>
<path transform="translate(254,184)" d="m0 0h38v1l-23 2-8 3h-7l-3-1 1-4z" fill="#8F9DAC"/>
<path transform="translate(169,328)" d="m0 0 15 1 3 3 5 1h12l9 2v1h-27l-11-4-6-2z" fill="#70B9D2"/>
<path transform="translate(143,244)" d="m0 0h3l1 3-2 3-1 7-3-1-2 4-1 25h-1v-35l4-5z" fill="#6D7477"/>
<path transform="translate(337,58)" d="m0 0 5 1 17 8 6 4 11 4 5 5 7 6 9 6 6 7h-3l-4-5-12-8-8-7-3-3-13-5-7-4-16-8z" fill="#61B5D3"/>
<path transform="translate(150,252)" d="m0 0 3 1h-2l3 5 10 5 3 3 1 16-1 16 1 2h-3l-1-4v-27l-2-4-10-6-3-4z" fill="#A9ADB0"/>
<path transform="translate(152,181)" d="m0 0 4 2 7 4 3 4v34l-3-1v-34l-4-2-6-4z" fill="#AAAEB1"/>
<path transform="translate(221,303)" d="m0 0h3l2 3 31 1-3 2 10 3v1l-21 1v-1l8-1v-2l-30-2z" fill="#0688C4"/>
<path transform="translate(1810,176)" d="m0 0h1l1 55 3 16 1 5-3-1-4-15z" fill="#56BADB"/>
<path transform="translate(369,397)" d="m0 0h2l-2 5-8 5-15 6-8 4-17 5-3-1 3-2 17-5 10-5 13-5 6-4z" fill="#1E99C7"/>
<path transform="translate(325,84)" d="m0 0h25l18 4v3l-13-3-30-1z" fill="#718FB8"/>
<path transform="translate(211,240)" d="m0 0 24 1 9 3 2 2v7l-3 3h-9l4-2h2v-8l-8-3-17-1z" fill="#03A4EB"/>
<path transform="translate(768,152)" d="m0 0 1 2-2 9v35l-2-4-2-7v-22l3-11z" fill="#1EB3E7"/>
<path transform="translate(374,145)" d="m0 0 1 2-3 6-1 12-4 7-2 1v-16l6-8z" fill="#0688C4"/>
<path transform="translate(342,180)" d="m0 0 2 1-1 2 10-1h5l1-1h13v1l-12 2-16 5h-5l1-7-3-1z" fill="#AAAFB2"/>
<path transform="translate(345,89)" d="m0 0 9 1 10 5-2 2h-13l-5-4-1-3z" fill="#646A6B"/>
<path transform="translate(169,372)" d="m0 0 8 1 15 2v2l9 1 5 1 37 2v1h-21l-17-1-31-6-5-2z" fill="#969DA2"/>
<path transform="translate(133,176)" d="m0 0 2 2 1 36h-2l-1-2-2-24v-8z" fill="#6D8BAE"/>
<path transform="translate(322,258)" d="m0 0h8l-1 3-6 2-25 1 2-2 10-3z" fill="#D0D8DE"/>
<path transform="translate(372,195)" d="m0 0h1l2 12 1 1 2-8 3 1v11l-5 10h-2l1-9-2-2-1-6z" fill="#7A848E"/>
<path transform="translate(154,148)" d="m0 0 11 1 4 1v2l5 1-2 9-1 6 2 6-6-2-1-7 5-7 1-4-13-3-5-2z" fill="#066B9F"/>
<path transform="translate(361,303)" d="m0 0h2l-2 19-1 2-4-1-3-5-1-13 2 3 2 7h2z" fill="#C1C9D0"/>
<path transform="translate(181,307)" d="m0 0 2 2-8 4-1 1v7l3 3-1 4h-7l-21-5v-1l9-1 8 3 10 3-5-9 2-6z" fill="#066B9F"/>
<path transform="translate(1175,382)" d="m0 0h12l1 2-1 5h-13v-6z" fill="#218CC0"/>
<path transform="translate(137,285)" d="m0 0 4 5 4 3 3 7 2 4-1 6-5 3-4 3-1 4-3 1 1-5 9-9-1-7-8-12z" fill="#0686C2"/>
<path transform="translate(365,285)" d="m0 0h15l5 2v21l-2 4-1-23-1-1-20-1z" fill="#45B0D8"/>
<path transform="translate(199,179)" d="m0 0h31l4 3h-27l-8-2z" fill="#066CA0"/>
<path transform="translate(311,272)" d="m0 0h15l12 2 2 2h-23l-9-2z" fill="#0688C4"/>
<path transform="translate(187,377)" d="m0 0 18 3 25 2 6 1v1l-31-1-11-2v-2l-7-1z" fill="#6F767A"/>
<path transform="translate(1631,150)" d="m0 0 5 4v2l3 1 4 9v9l-4 5v-15l-3-5-2-4h-2z" fill="#11B1E9"/>
<path transform="translate(320,87)" d="m0 0h35l11 3 3 2v4h-2l-1-3-13-4h-33z" fill="#7A848E"/>
<path transform="translate(219,330)" d="m0 0 9 1h13v5l-22-1z" fill="#1E99C7"/>
<path transform="translate(188,308)" d="m0 0 15 1 10 3v1h-12l-6 1-8-2-1-3z" fill="#1B96C6"/>
<path transform="translate(186,235)" d="m0 0 10 1v1l-9 1-2 7-1 5 9 2v1l-10-1-2-1-1-8 2-5h2v-2z" fill="#03A4EB"/>
<path transform="translate(375,267)" d="m0 0h1l1 9-1 1h-12l-1-2 6-5z" fill="#0F3A6E"/>
<path transform="translate(175,228)" d="m0 0 5 1-5 6-1 3v10l2 4-3-1-4-6 1-9z" fill="#066B9F"/>
<path transform="translate(154,89)" d="m0 0h9l-3 2-4 2-13 3-7 6-1-2 6-7z" fill="#757C82"/>
<path transform="translate(377,254)" d="m0 0h2v13h-1v-11l-15 6-6 3-8 1h-9v-1l21-5 12-4z" fill="#6E7477"/>
<path transform="translate(177,155)" d="m0 0 12 1 7 4 7 1v1h-9l-13-1-3-1z" fill="#1E99C7"/>
<path transform="translate(392,354)" d="m0 0h1v17l-3 2h-28v-1l26-2 2-1 1-6z" fill="#1E99C7"/>
<path transform="translate(149,301)" d="m0 0 3 4 3 5-1 5h-8l-5 2-2 1 2-4 7-4 1-6z" fill="#066B9F"/>
<path transform="translate(181,160)" d="m0 0h7l-3 4-1 7 5 5-5-1-4-2-1-2v-8z" fill="#03A4EB"/>
<path transform="translate(182,254)" d="m0 0h10l15 3v2h-10l-13-2z" fill="#0A7CB2"/>
<path transform="translate(160,264)" d="m0 0 4 2 1 3v30l-3-1v-30z" fill="#98A1A9"/>
<path transform="translate(1792,140)" d="m0 0 8 5 7 11 3 10v4h-2l-4-14-2-4h-2l-2-7-5-2z" fill="#20B3E6"/>
<path transform="translate(356,285)" d="m0 0 5 1 18 1v1h-24l-37-1v-1z" fill="#61B5D3"/>
<path transform="translate(133,104)" d="m0 0h1v33l5 5 4 6-1 2-9-10-1-2v-29z" fill="#0686C2"/>
<path transform="translate(200,232)" d="m0 0h46l-1 2-5 1h-12l-28-2z" fill="#61B5D3"/>
<path transform="translate(206,182)" d="m0 0 42 1 6 1-4 4-1-2-3-1-40-1z" fill="#78BBD1"/>
<path transform="translate(1957,200)" d="m0 0 6 2 4 4 1 3 5 4 1 4-4-2-5-4-4-6-4-4z" fill="#1BB3E7"/>
<path transform="translate(359,107)" d="m0 0h10l2 2v6h-2l-1-5h-30v-1z" fill="#949CA1"/>
<path transform="translate(150,325)" d="m0 0h12l7 2-1 2-16-2 1 4 10 6-2 1-9-5-2-3z" fill="#8D9CAD"/>
<path transform="translate(333,256)" d="m0 0h10l-2 4-11 2h-5l4-2 1-2-2-1z" fill="#BFC7CF"/>
<path transform="translate(1712,230)" d="m0 0h1l2 7 5 6 2 1v2l-4 1-4-2-1-5h-2z" fill="#15B2E9"/>
<path transform="translate(355,109)" d="m0 0h5v2l-16 3h-8l-5-1v-1z" fill="#757C81"/>
<path transform="translate(160,298)" d="m0 0 11 2 13 3 1 3 2 1-5-1-16-4-6-3z" fill="#76A7C6"/>
<path transform="translate(1542,219)" d="m0 0 2 4 6 9 3 4-5-1-5-4-2-5z" fill="#13B2E9"/>
<path transform="translate(320,309)" d="m0 0 3 4 3 1 2-4 1 3-3 9h-3l-3-10z" fill="#C0C7CE"/>
<path transform="translate(371,184)" d="m0 0 2 2 3 14h2l-1 9-3-2-3-19z" fill="#909699"/>
<path transform="translate(372,173)" d="m0 0 5 1-1 4-1 1h-12l4-4z" fill="#D9DFE3"/>
<path transform="translate(236,163)" d="m0 0h6l3 3v8l-2 3h-3l1-8-2-4z" fill="#03A4EB"/>
<path transform="translate(369,397)" d="m0 0h2l-2 5-8 5-13 5-2-1 2-2 13-5 6-4z" fill="#1D98C6"/>
<path transform="translate(1958,147)" d="m0 0 4 2 4 5 2 10-3 9-1-3v-11l-3-7z" fill="#19B2E8"/>
<path transform="translate(375,144)" d="m0 0h2l-2 8-1 14-2 2-1-7v-8z" fill="#60A9CC"/>
<path transform="translate(351,377)" d="m0 0v3l-22 9h-8v-1l9-2 8-4 8-3z" fill="#0686C2"/>
<path transform="translate(312,269)" d="m0 0h7v1l13 2v1h-28v-2z" fill="#6D7274"/>
<path transform="translate(342,375)" d="m0 0h8l-2 2-18 3h-6v-2z" fill="#0F3A6E"/>
<path transform="translate(373,99)" d="m0 0 5 1 2 4-1 2-9-2-2-1v-2z" fill="#D9DFE3"/>
<path transform="translate(329,268)" d="m0 0h12l-4 3h-20l2-2z" fill="#435866"/>
<path transform="translate(922,260)" d="m0 0 7 6 2 3v7l-5 6v-3l1-3v-8l-5-6z" fill="#0FB1EA"/>
<path transform="translate(1460,89)" d="m0 0 4 4 1 3v9l-2 5-2-2v-14z" fill="#1BB3E8"/>
<path transform="translate(700,319)" d="m0 0h2l1 8v11l-1 5h-1l-1-9z" fill="#93C6D6"/>
<path transform="translate(219,234)" d="m0 0h28l-1 2-3 1h-12l-12-2z" fill="#1E99C7"/>
<path transform="translate(351,178)" d="m0 0h5l-2 1v2l4 1v1h-15l1-3z" fill="#B6BEC5"/>
<path transform="translate(342,327)" d="m0 0 3 3 3 9 3 6v6l-2-4-5-9z" fill="#C0C7CE"/>
<path transform="translate(378,200)" d="m0 0 3 1v11l-5 10h-2l2-5 2-4v-5l-1-3z" fill="#688DBA"/>
<path transform="translate(411,409)" d="m0 0h3l-2 4-7 5h-5l2-1 2-4z" fill="#0F71A5"/>
<path transform="translate(213,260)" d="m0 0 11 1 20 2v1h-16l-15-2z" fill="#6CBAD3"/>
<path transform="translate(396,420)" d="m0 0h2l-2 4-12 7h-2l1-3 7-5z" fill="#0F75A9"/>
<path transform="translate(378,250)" d="m0 0 3 3v23h-2v-22l-5 1 2-1z" fill="#7992B5"/>
<path transform="translate(1099,241)" d="m0 0 5 3 3 3 1 3v9l-3 6-1-3 2-4-1-7-3-5v-2l-3-1z" fill="#1AB3E8"/>
<path transform="translate(1543,177)" d="m0 0 2 1-3 11-1 12h-1l-1-7v-9l3-7z" fill="#25B4E5"/>
<path transform="translate(148,250)" d="m0 0h7l8 2v1h-13l2 5 1 2-5-2-1-1z" fill="#8A99AA"/>
<path transform="translate(385,351)" d="m0 0h1l1 10-2 3-12 1-1-2 12-3z" fill="#1E99C7"/>
<path transform="translate(325,155)" d="m0 0h15l-1 3-9 1z" fill="#055797"/>
<path transform="translate(144,146)" d="m0 0 7 1 6 2-3 3-6-1-4-3z" fill="#0F3A6E"/>
<path transform="translate(284,337)" d="m0 0 5 1-1 6-6-1-1-3-2-2z" fill="#7EB9CF"/>
<path transform="translate(370,195)" d="m0 0h2l2 16 2 2v5l-1-3-3-1-1-2z" fill="#727779"/>
<path transform="translate(370,98)" d="m0 0h5l-2 2-5 1v2l3 1v1h-7l-2-1v-2l3-3z" fill="#C2C9D0"/>
<path transform="translate(368,89)" d="m0 0 5 4v5l-3 1h-8l3-2 4-1z" fill="#959DA2"/>
<path transform="translate(221,303)" d="m0 0h3l2 3 15 1 1 2-21-1z" fill="#5789B6"/>
<path transform="translate(1639,217)" d="m0 0 4 4 3 6-1 6-3-1-1-9z" fill="#17B2E8"/>
<path transform="translate(371,161)" d="m0 0h1v7l-4 6-7 3h-10v-1l12-2 5-5z" fill="#7591B7"/>
<path transform="translate(1631,150)" d="m0 0 5 4v2l3 1 2 6-4-2-3-3v-2h-2z" fill="#1AB3E8"/>
<path transform="translate(174,380)" d="m0 0h7l6 3 5 1 1 3-8-1-4-2-1-2-6-1z" fill="#6E7579"/>
<path transform="translate(16,282)" d="m0 0 2 2 1 7 2 6v7l-2-3-4-16z" fill="#30A0C9"/>
<path transform="translate(143,244)" d="m0 0h3l1 3-4 5-4-2 1-4z" fill="#294969"/>
<path transform="translate(796,383)" d="m0 0h7v3l-2 1 3 2h-14v-1h8v-2h-2z" fill="#0688C4"/>
<path transform="translate(182,371)" d="m0 0 12 2 2 1v2l-12-1-6-2z" fill="#BDC4CB"/>
<path transform="translate(145,294)" d="m0 0 17 5 2 2-11-2-5-2 1 4-3-2z" fill="#0671A7"/>
<path transform="translate(155,321)" d="m0 0 10 3 6 3-2 1-21-5v-1z" fill="#0679B1"/>
<path transform="translate(1974,218)" d="m0 0h1l1 10-2 12h-1v-18z" fill="#1FB3E7"/>
<path transform="translate(213,313)" d="m0 0h26v1l-18 1-7 1z" fill="#1E99C7"/>
<path transform="translate(358,261)" d="m0 0h2l-1 3-10 2h-9v-1z" fill="#737B80"/>
<path transform="translate(363,182)" d="m0 0h5l-3 2-10 4h-8l4-2z" fill="#959DA3"/>
<path transform="translate(162,177)" d="m0 0h10l9 3v1h-8l-11-3z" fill="#7BB3CC"/>
<path transform="translate(574,131)" d="m0 0 2 4 2 5 4 2v1h-5l-4-5z" fill="#21B3E6"/>
<path transform="translate(672,102)" d="m0 0 5 5 5 9-1 3-4-5-5-10z" fill="#21B3E6"/>
<path transform="translate(299,47)" d="m0 0h9l6 4-3 1-12-3z" fill="#4DB1D6"/>
<path transform="translate(145,224)" d="m0 0h2l2 6v7l-6 5v-3l3-3v-8z" fill="#0687C2"/>
<path transform="translate(561,204)" d="m0 0 4 4 7 11v2l-4-2-6-12z" fill="#1EB3E7"/>
<path transform="translate(335,151)" d="m0 0h10l-2 2-4 1h-12l2-2z" fill="#066B9F"/>
<path transform="translate(144,220)" d="m0 0 9 2 2 4-4 1-3-2v-2l-4-1z" fill="#113E70"/>
<path transform="translate(179,151)" d="m0 0 14 2 6 1v1h-11l-9-1z" fill="#8BBED0"/>
<path transform="translate(193,387)" d="m0 0h10l7 2 2 2-9-1-10-2z" fill="#71797E"/>
<path transform="translate(152,373)" d="m0 0h10l5 4 3 3-18-6z" fill="#7A848E"/>
<path transform="translate(803,382)" d="m0 0h4v7l-7-1 1-2h2z" fill="#7492BA"/>
<path transform="translate(356,285)" d="m0 0 5 1 18 1v1h-24z" fill="#5FB4D3"/>
<path transform="translate(165,148)" d="m0 0 8 1 6 1v3l-10-2-4-1z" fill="#889EB5"/>
<path transform="translate(357,375)" d="m0 0 2 1-8 6-4 2-3-1 5-3z" fill="#6F8EBA"/>
<path transform="translate(148,323)" d="m0 0 9 1v1h-8l1 8-3-3v-6z" fill="#75889F"/>
<path transform="translate(500,214)" d="m0 0h2l-1 24h-1l-1-22z" fill="#299EC9"/>
<path transform="translate(169,328)" d="m0 0 15 1 3 4-5-2h-11l-2-1z" fill="#69ABCA"/>
<path transform="translate(182,254)" d="m0 0h10l5 2v1h-8l-7-2z" fill="#0C447A"/>
<path transform="translate(1812,237)" d="m0 0h1l3 15-3-1-2-9z" fill="#21B3E6"/>
<path transform="translate(288,342)" d="m0 0h1l-1 15-2-2v-10z" fill="#6F8EBA"/>
<path transform="translate(142,315)" d="m0 0 5 1 1 4-5 1z" fill="#0F3A6E"/>
<path transform="translate(154,148)" d="m0 0 11 1 4 2-6 1-9-3z" fill="#0675AC"/>
<path transform="translate(354,313)" d="m0 0 4 2 2-2-1 8-4-2z" fill="#B6BEC5"/>
<path transform="translate(355,252)" d="m0 0 2 1-2 4 4-1 1 2-5 1-3-1-1-3 1-2z" fill="#C2C9D0"/>
<path transform="translate(1805,157)" d="m0 0h2l3 9v4h-2z" fill="#28B4E5"/>
<path transform="translate(1853,145)" d="m0 0" fill="#80C0D3"/>
</svg>
